<svg width="962" height="759" viewBox="0 0 962 759" fill="none" xmlns="http://www.w3.org/2000/svg">
<path d="M379.223 379.211L240.507 138.948C300.119 104.531 370.397 93.5037 437.685 108.009C504.974 122.514 564.467 161.516 604.606 217.436C644.744 273.356 662.661 342.201 654.874 410.593C647.088 478.986 614.155 542.041 562.474 587.508C510.793 632.975 444.055 657.606 375.228 656.615C306.401 655.623 240.4 629.081 190.05 582.145C139.7 535.209 108.596 471.231 102.782 402.643C96.9684 334.055 116.86 265.755 158.592 211.014L379.223 379.211Z" fill="#FF6320"/>
<path d="M379.223 379.211L158.591 211.014C180.857 181.807 208.701 157.311 240.507 138.948L379.223 379.211Z" fill="#1E5BDF"/>
<path d="M340.504 442.455L349.403 441.335C349.638 442.58 350.033 443.459 350.59 443.972C351.147 444.484 351.828 444.741 352.633 444.741C354.069 444.741 355.19 444.016 355.995 442.565C356.581 441.496 357.021 439.233 357.314 435.776C356.244 436.874 355.146 437.68 354.018 438.193C352.89 438.705 351.586 438.962 350.107 438.962C347.221 438.962 344.782 437.936 342.79 435.886C340.812 433.835 339.823 431.242 339.823 428.107C339.823 425.969 340.329 424.02 341.339 422.263C342.35 420.505 343.742 419.179 345.514 418.286C347.287 417.377 349.513 416.923 352.194 416.923C355.417 416.923 358.002 417.48 359.95 418.593C361.898 419.692 363.451 421.45 364.608 423.867C365.78 426.269 366.366 429.448 366.366 433.403C366.366 439.218 365.143 443.481 362.697 446.191C360.251 448.886 356.859 450.234 352.523 450.234C349.96 450.234 347.939 449.941 346.459 449.355C344.98 448.754 343.749 447.883 342.768 446.74C341.786 445.598 341.032 444.169 340.504 442.455ZM356.984 428.085C356.984 426.342 356.544 424.98 355.666 423.998C354.787 423.002 353.717 422.504 352.458 422.504C351.271 422.504 350.282 422.951 349.491 423.845C348.715 424.738 348.327 426.078 348.327 427.866C348.327 429.667 348.73 431.044 349.535 431.996C350.356 432.949 351.374 433.425 352.589 433.425C353.849 433.425 354.897 432.963 355.732 432.04C356.566 431.118 356.984 429.799 356.984 428.085ZM378.803 426.789L370.343 425.273C371.046 422.578 372.394 420.512 374.386 419.077C376.393 417.641 379.228 416.923 382.89 416.923C387.094 416.923 390.133 417.707 392.008 419.274C393.883 420.842 394.821 422.812 394.821 425.185C394.821 426.577 394.44 427.836 393.678 428.964C392.917 430.092 391.767 431.081 390.229 431.931C391.474 432.238 392.426 432.597 393.085 433.007C394.154 433.666 394.982 434.538 395.568 435.622C396.169 436.691 396.469 437.973 396.469 439.467C396.469 441.342 395.978 443.144 394.997 444.872C394.015 446.586 392.602 447.912 390.756 448.849C388.91 449.772 386.486 450.234 383.483 450.234C380.553 450.234 378.239 449.89 376.54 449.201C374.855 448.513 373.463 447.509 372.365 446.191C371.281 444.858 370.446 443.188 369.86 441.181L378.803 439.995C379.154 441.796 379.696 443.049 380.429 443.752C381.176 444.44 382.121 444.785 383.263 444.785C384.464 444.785 385.461 444.345 386.252 443.466C387.057 442.587 387.46 441.415 387.46 439.951C387.46 438.456 387.072 437.299 386.295 436.479C385.534 435.659 384.494 435.248 383.175 435.248C382.472 435.248 381.505 435.424 380.275 435.776L380.736 429.382C381.234 429.455 381.623 429.492 381.901 429.492C383.073 429.492 384.047 429.118 384.823 428.371C385.614 427.624 386.01 426.738 386.01 425.712C386.01 424.731 385.717 423.947 385.131 423.361C384.545 422.775 383.739 422.482 382.714 422.482C381.659 422.482 380.802 422.805 380.143 423.449C379.484 424.079 379.037 425.192 378.803 426.789ZM401.017 440.807H410.575V448.168C410.575 450.878 410.011 453.017 408.883 454.584C407.755 456.152 405.829 457.536 403.105 458.737L401.017 454.826C402.716 454.035 403.881 453.244 404.511 452.453C405.155 451.677 405.514 450.754 405.587 449.684H401.017V440.807ZM415.277 417.473H441.403V423.515C439.132 425.566 437.235 427.785 435.712 430.173C433.866 433.073 432.409 436.303 431.339 439.863C430.49 442.631 429.919 445.905 429.626 449.684H420.705C421.408 444.426 422.514 440.016 424.023 436.457C425.531 432.897 427.919 429.089 431.186 425.031H415.277V417.473ZM472.824 416.923H477.46L458.849 451.332H454.257L472.824 416.923ZM445.468 425.383C445.468 423.889 445.79 422.468 446.435 421.12C447.094 419.772 448.09 418.74 449.423 418.022C450.771 417.289 452.36 416.923 454.191 416.923C456.886 416.923 459.01 417.692 460.563 419.23C462.116 420.768 462.892 422.819 462.892 425.383C462.892 427.961 462.116 430.019 460.563 431.557C459.01 433.095 456.886 433.864 454.191 433.864C452.36 433.864 450.771 433.505 449.423 432.787C448.09 432.055 447.094 431.015 446.435 429.667C445.79 428.32 445.468 426.891 445.468 425.383ZM451.642 425.427C451.642 427.243 451.935 428.561 452.521 429.382C452.902 429.924 453.459 430.195 454.191 430.195C454.923 430.195 455.473 429.924 455.839 429.382C456.425 428.561 456.718 427.243 456.718 425.427C456.718 423.625 456.425 422.307 455.839 421.472C455.473 420.944 454.923 420.681 454.191 420.681C453.459 420.681 452.902 420.944 452.521 421.472C451.935 422.292 451.642 423.61 451.642 425.427ZM468.693 442.807C468.693 441.298 469.015 439.877 469.66 438.544C470.304 437.197 471.3 436.157 472.648 435.424C473.996 434.692 475.578 434.326 477.394 434.326C480.104 434.326 482.235 435.102 483.788 436.655C485.341 438.193 486.117 440.244 486.117 442.807C486.117 445.37 485.341 447.429 483.788 448.981C482.235 450.519 480.104 451.288 477.394 451.288C475.578 451.288 473.996 450.922 472.648 450.19C471.3 449.457 470.304 448.425 469.66 447.092C469.015 445.744 468.693 444.316 468.693 442.807ZM474.867 442.851C474.867 444.667 475.16 445.986 475.746 446.806C476.112 447.333 476.662 447.597 477.394 447.597C478.127 447.597 478.683 447.333 479.064 446.806C479.65 445.986 479.943 444.667 479.943 442.851C479.943 441.035 479.65 439.709 479.064 438.874C478.683 438.347 478.127 438.083 477.394 438.083C476.662 438.083 476.112 438.354 475.746 438.896C475.16 439.716 474.867 441.035 474.867 442.851Z" fill="black"/>
<path d="M226.339 198.808L219.221 193.355C219.926 192.303 220.26 191.399 220.222 190.643C220.195 189.897 219.894 189.242 219.319 188.678C218.285 187.661 216.967 187.393 215.365 187.874C214.208 188.216 212.319 189.522 209.698 191.793C211.221 191.769 212.564 191.97 213.728 192.394C214.902 192.809 216.017 193.534 217.072 194.571C219.12 196.583 220.131 199.013 220.105 201.862C220.089 204.721 218.977 207.274 216.77 209.521C215.282 211.036 213.561 212.067 211.608 212.612C209.666 213.168 207.739 213.144 205.828 212.539C203.937 211.935 202.036 210.693 200.123 208.815C197.824 206.556 196.365 204.353 195.745 202.204C195.125 200.054 195.239 197.712 196.086 195.177C196.954 192.642 198.779 189.959 201.561 187.127C205.637 182.978 209.491 180.8 213.125 180.591C216.769 180.372 220.138 181.782 223.231 184.821C225.06 186.617 226.292 188.248 226.926 189.713C227.582 191.178 227.859 192.662 227.758 194.165C227.658 195.668 227.185 197.215 226.339 198.808ZM204.528 197.495C203.307 198.739 202.66 200.024 202.589 201.35C202.529 202.666 202.953 203.771 203.862 204.664C204.698 205.485 205.711 205.854 206.902 205.771C208.092 205.688 209.308 205.014 210.55 203.75C211.823 202.454 212.501 201.179 212.583 199.925C212.665 198.671 212.272 197.618 211.405 196.766C210.517 195.893 209.446 195.488 208.193 195.551C206.951 195.624 205.729 196.272 204.528 197.495ZM218.626 213.777L225.445 220.475L220.286 225.726C218.387 227.66 216.486 228.79 214.583 229.118C212.68 229.445 210.336 229.083 207.551 228.031L208.802 223.778C210.569 224.404 211.954 224.656 212.958 224.533C213.961 224.431 214.864 224.024 215.666 223.313L212.405 220.11L218.626 213.777ZM244.705 219.744L239.732 212.734C242.123 211.304 244.532 210.775 246.959 211.147C249.396 211.53 251.922 213.004 254.534 215.57C257.533 218.516 259.152 221.205 259.392 223.638C259.631 226.07 258.919 228.132 257.256 229.825C256.281 230.818 255.126 231.45 253.792 231.72C252.458 231.991 250.945 231.891 249.253 231.419C249.925 232.511 250.353 233.434 250.536 234.189C250.837 235.408 250.816 236.61 250.475 237.794C250.154 238.978 249.47 240.103 248.423 241.169C247.109 242.506 245.496 243.448 243.585 243.993C241.684 244.528 239.746 244.483 237.772 243.858C235.809 243.223 233.756 241.853 231.614 239.749C229.524 237.696 228.114 235.829 227.384 234.147C226.665 232.475 226.376 230.784 226.516 229.074C226.677 227.363 227.251 225.587 228.24 223.744L235.451 229.165C234.439 230.697 233.948 231.97 233.978 232.985C234.028 233.999 234.461 234.907 235.276 235.708C236.133 236.549 237.151 236.934 238.332 236.861C239.522 236.799 240.631 236.245 241.657 235.2C242.704 234.134 243.238 233.037 243.259 231.908C243.291 230.789 242.836 229.767 241.896 228.843C241.394 228.35 240.581 227.798 239.457 227.187L244.267 222.949C244.571 223.35 244.822 223.648 245.021 223.843C245.857 224.665 246.814 225.081 247.891 225.092C248.979 225.113 249.882 224.758 250.601 224.027C251.288 223.327 251.629 222.562 251.621 221.734C251.614 220.905 251.244 220.131 250.513 219.413C249.761 218.674 248.923 218.303 248.001 218.301C247.09 218.288 245.991 218.769 244.705 219.744ZM286.589 247.059L289.897 250.308L252.507 261.813L249.231 258.595L286.589 247.059ZM261.146 233.923C262.193 232.858 263.418 232.07 264.823 231.56C266.237 231.061 267.672 231.022 269.125 231.444C270.6 231.866 271.991 232.718 273.297 234.002C275.22 235.89 276.196 237.927 276.226 240.113C276.256 242.298 275.372 244.305 273.576 246.134C271.769 247.973 269.773 248.897 267.588 248.906C265.402 248.916 263.348 247.976 261.425 246.087C260.119 244.804 259.236 243.434 258.778 241.977C258.34 240.521 258.359 239.081 258.833 237.657C259.317 236.244 260.088 235 261.146 233.923ZM265.52 238.282C264.247 239.577 263.532 240.723 263.375 241.719C263.267 242.372 263.474 242.956 263.996 243.469C264.519 243.982 265.101 244.174 265.742 244.044C266.735 243.869 267.868 243.134 269.14 241.838C270.403 240.553 271.118 239.407 271.285 238.401C271.393 237.768 271.186 237.195 270.664 236.682C270.141 236.169 269.559 235.967 268.918 236.076C267.925 236.251 266.792 236.986 265.52 238.282ZM265.503 262.629C266.561 261.553 267.786 260.765 269.18 260.266C270.585 259.756 272.024 259.712 273.499 260.134C274.973 260.556 276.359 261.403 277.654 262.676C279.588 264.575 280.564 266.623 280.584 268.819C280.613 271.004 279.73 273.011 277.934 274.84C276.137 276.668 274.141 277.593 271.945 277.612C269.76 277.621 267.7 276.676 265.767 274.777C264.471 273.504 263.599 272.134 263.151 270.668C262.703 269.201 262.716 267.766 263.191 266.363C263.675 264.95 264.446 263.706 265.503 262.629ZM269.877 266.987C268.604 268.283 267.89 269.429 267.733 270.425C267.624 271.058 267.831 271.631 268.354 272.144C268.876 272.657 269.458 272.859 270.1 272.75C271.092 272.575 272.225 271.84 273.498 270.544C274.771 269.248 275.491 268.097 275.658 267.091C275.756 266.448 275.544 265.87 275.021 265.357C274.499 264.843 273.917 264.652 273.276 264.782C272.283 264.956 271.15 265.692 269.877 266.987Z" fill="white"/>
<g filter="url(#filter0_d_4_1253)">
<rect x="653.689" y="557.617" width="304.06" height="107.666" fill="#FDFDFD" fill-opacity="0.6" shape-rendering="crispEdges"/>
</g>
<circle cx="686.899" cy="590.074" r="12.3259" fill="#1E5BDF"/>
<circle cx="686.899" cy="629.681" r="12.3259" fill="#FF6320"/>
<path d="M709.588 596.074V584.621H711.104V590.301L716.791 584.621H718.846L714.041 589.262L719.057 596.074H717.057L712.979 590.277L711.104 592.105V596.074H709.588ZM719.619 591.926C719.619 590.389 720.046 589.251 720.9 588.512C721.614 587.897 722.484 587.59 723.51 587.59C724.65 587.59 725.583 587.965 726.307 588.715C727.031 589.46 727.393 590.491 727.393 591.809C727.393 592.876 727.231 593.717 726.908 594.332C726.591 594.941 726.124 595.415 725.51 595.754C724.9 596.092 724.234 596.262 723.51 596.262C722.348 596.262 721.408 595.889 720.69 595.145C719.976 594.4 719.619 593.327 719.619 591.926ZM721.065 591.926C721.065 592.988 721.296 593.785 721.76 594.316C722.223 594.842 722.807 595.105 723.51 595.105C724.208 595.105 724.788 594.84 725.252 594.309C725.716 593.777 725.947 592.967 725.947 591.879C725.947 590.853 725.713 590.077 725.244 589.551C724.781 589.02 724.203 588.754 723.51 588.754C722.807 588.754 722.223 589.017 721.76 589.543C721.296 590.069 721.065 590.863 721.065 591.926ZM729.049 596.074V587.777H730.315V588.957C730.924 588.046 731.804 587.59 732.955 587.59C733.455 587.59 733.913 587.681 734.33 587.863C734.752 588.04 735.067 588.275 735.275 588.566C735.484 588.858 735.63 589.204 735.713 589.605C735.765 589.866 735.791 590.322 735.791 590.973V596.074H734.385V591.027C734.385 590.454 734.33 590.027 734.221 589.746C734.111 589.46 733.916 589.233 733.635 589.066C733.359 588.895 733.033 588.809 732.658 588.809C732.059 588.809 731.541 588.999 731.104 589.379C730.671 589.759 730.455 590.48 730.455 591.543V596.074H729.049ZM741.025 594.816L741.229 596.059C740.833 596.142 740.479 596.184 740.166 596.184C739.656 596.184 739.26 596.103 738.979 595.941C738.697 595.78 738.499 595.569 738.385 595.309C738.27 595.043 738.213 594.488 738.213 593.645V588.871H737.182V587.777H738.213V585.723L739.611 584.879V587.777H741.025V588.871H739.611V593.723C739.611 594.124 739.635 594.382 739.682 594.496C739.734 594.611 739.815 594.702 739.924 594.77C740.038 594.837 740.2 594.871 740.408 594.871C740.565 594.871 740.77 594.853 741.025 594.816ZM747.822 595.051C747.301 595.493 746.799 595.806 746.315 595.988C745.835 596.171 745.32 596.262 744.768 596.262C743.856 596.262 743.156 596.04 742.666 595.598C742.176 595.15 741.932 594.579 741.932 593.887C741.932 593.48 742.023 593.111 742.205 592.777C742.393 592.439 742.635 592.168 742.932 591.965C743.234 591.762 743.572 591.608 743.947 591.504C744.223 591.431 744.64 591.361 745.197 591.293C746.333 591.158 747.169 590.996 747.705 590.809C747.71 590.616 747.713 590.493 747.713 590.441C747.713 589.868 747.58 589.465 747.315 589.23C746.955 588.913 746.421 588.754 745.713 588.754C745.051 588.754 744.562 588.871 744.244 589.105C743.932 589.335 743.7 589.743 743.549 590.332L742.174 590.145C742.299 589.556 742.505 589.082 742.791 588.723C743.078 588.358 743.492 588.079 744.033 587.887C744.575 587.689 745.203 587.59 745.916 587.59C746.624 587.59 747.2 587.673 747.643 587.84C748.085 588.007 748.411 588.217 748.619 588.473C748.828 588.723 748.973 589.04 749.057 589.426C749.104 589.665 749.127 590.098 749.127 590.723V592.598C749.127 593.905 749.156 594.733 749.213 595.082C749.275 595.426 749.395 595.757 749.572 596.074H748.104C747.958 595.783 747.864 595.441 747.822 595.051ZM747.705 591.91C747.195 592.118 746.429 592.296 745.408 592.441C744.83 592.525 744.421 592.618 744.182 592.723C743.942 592.827 743.757 592.98 743.627 593.184C743.497 593.382 743.432 593.603 743.432 593.848C743.432 594.223 743.572 594.535 743.854 594.785C744.14 595.035 744.557 595.16 745.104 595.16C745.645 595.16 746.127 595.043 746.549 594.809C746.971 594.569 747.281 594.243 747.479 593.832C747.63 593.514 747.705 593.046 747.705 592.426V591.91ZM751.315 596.074V587.777H752.58V588.957C753.19 588.046 754.07 587.59 755.221 587.59C755.721 587.59 756.179 587.681 756.596 587.863C757.018 588.04 757.333 588.275 757.541 588.566C757.749 588.858 757.895 589.204 757.979 589.605C758.031 589.866 758.057 590.322 758.057 590.973V596.074H756.65V591.027C756.65 590.454 756.596 590.027 756.486 589.746C756.377 589.46 756.182 589.233 755.9 589.066C755.624 588.895 755.299 588.809 754.924 588.809C754.325 588.809 753.807 588.999 753.369 589.379C752.937 589.759 752.721 590.48 752.721 591.543V596.074H751.315ZM763.291 594.816L763.494 596.059C763.098 596.142 762.744 596.184 762.432 596.184C761.921 596.184 761.525 596.103 761.244 595.941C760.963 595.78 760.765 595.569 760.65 595.309C760.536 595.043 760.479 594.488 760.479 593.645V588.871H759.447V587.777H760.479V585.723L761.877 584.879V587.777H763.291V588.871H761.877V593.723C761.877 594.124 761.9 594.382 761.947 594.496C761.999 594.611 762.08 594.702 762.19 594.77C762.304 594.837 762.466 594.871 762.674 594.871C762.83 594.871 763.036 594.853 763.291 594.816ZM765.971 596.074H764.666V584.621H766.072V588.707C766.666 587.962 767.424 587.59 768.346 587.59C768.856 587.59 769.338 587.694 769.791 587.902C770.249 588.105 770.624 588.395 770.916 588.77C771.213 589.139 771.445 589.587 771.611 590.113C771.778 590.639 771.861 591.202 771.861 591.801C771.861 593.223 771.51 594.322 770.807 595.098C770.104 595.874 769.26 596.262 768.275 596.262C767.296 596.262 766.528 595.853 765.971 595.035V596.074ZM765.955 591.863C765.955 592.858 766.091 593.577 766.361 594.02C766.804 594.743 767.403 595.105 768.158 595.105C768.773 595.105 769.304 594.84 769.752 594.309C770.2 593.772 770.424 592.975 770.424 591.918C770.424 590.835 770.208 590.035 769.775 589.52C769.348 589.004 768.83 588.746 768.221 588.746C767.606 588.746 767.075 589.014 766.627 589.551C766.179 590.082 765.955 590.853 765.955 591.863ZM779.26 593.402L780.713 593.582C780.484 594.431 780.059 595.09 779.44 595.559C778.82 596.027 778.028 596.262 777.065 596.262C775.851 596.262 774.887 595.889 774.174 595.145C773.466 594.395 773.111 593.345 773.111 591.996C773.111 590.6 773.471 589.517 774.19 588.746C774.908 587.975 775.841 587.59 776.986 587.59C778.096 587.59 779.002 587.967 779.705 588.723C780.408 589.478 780.76 590.54 780.76 591.91C780.76 591.993 780.757 592.118 780.752 592.285H774.565C774.617 593.197 774.874 593.895 775.338 594.379C775.801 594.863 776.38 595.105 777.072 595.105C777.588 595.105 778.028 594.97 778.393 594.699C778.757 594.428 779.046 593.996 779.26 593.402ZM774.643 591.129H779.275C779.213 590.431 779.036 589.908 778.744 589.559C778.296 589.017 777.716 588.746 777.002 588.746C776.356 588.746 775.812 588.962 775.369 589.395C774.932 589.827 774.69 590.405 774.643 591.129ZM785.557 594.816L785.76 596.059C785.364 596.142 785.01 596.184 784.697 596.184C784.187 596.184 783.791 596.103 783.51 595.941C783.229 595.78 783.031 595.569 782.916 595.309C782.801 595.043 782.744 594.488 782.744 593.645V588.871H781.713V587.777H782.744V585.723L784.143 584.879V587.777H785.557V588.871H784.143V593.723C784.143 594.124 784.166 594.382 784.213 594.496C784.265 594.611 784.346 594.702 784.455 594.77C784.57 594.837 784.731 594.871 784.94 594.871C785.096 594.871 785.301 594.853 785.557 594.816ZM792.354 595.051C791.833 595.493 791.33 595.806 790.846 595.988C790.367 596.171 789.851 596.262 789.299 596.262C788.387 596.262 787.687 596.04 787.197 595.598C786.708 595.15 786.463 594.579 786.463 593.887C786.463 593.48 786.554 593.111 786.736 592.777C786.924 592.439 787.166 592.168 787.463 591.965C787.765 591.762 788.104 591.608 788.479 591.504C788.755 591.431 789.171 591.361 789.729 591.293C790.864 591.158 791.7 590.996 792.236 590.809C792.242 590.616 792.244 590.493 792.244 590.441C792.244 589.868 792.111 589.465 791.846 589.23C791.486 588.913 790.953 588.754 790.244 588.754C789.583 588.754 789.093 588.871 788.775 589.105C788.463 589.335 788.231 589.743 788.08 590.332L786.705 590.145C786.83 589.556 787.036 589.082 787.322 588.723C787.609 588.358 788.023 588.079 788.565 587.887C789.106 587.689 789.734 587.59 790.447 587.59C791.156 587.59 791.731 587.673 792.174 587.84C792.617 588.007 792.942 588.217 793.15 588.473C793.359 588.723 793.505 589.04 793.588 589.426C793.635 589.665 793.658 590.098 793.658 590.723V592.598C793.658 593.905 793.687 594.733 793.744 595.082C793.807 595.426 793.926 595.757 794.104 596.074H792.635C792.489 595.783 792.395 595.441 792.354 595.051ZM792.236 591.91C791.726 592.118 790.96 592.296 789.94 592.441C789.361 592.525 788.953 592.618 788.713 592.723C788.473 592.827 788.288 592.98 788.158 593.184C788.028 593.382 787.963 593.603 787.963 593.848C787.963 594.223 788.104 594.535 788.385 594.785C788.671 595.035 789.088 595.16 789.635 595.16C790.176 595.16 790.658 595.043 791.08 594.809C791.502 594.569 791.812 594.243 792.01 593.832C792.161 593.514 792.236 593.046 792.236 592.426V591.91ZM795.815 596.074V584.621H797.221V596.074H795.815ZM799.416 586.238V584.621H800.822V586.238H799.416ZM799.416 596.074V587.777H800.822V596.074H799.416ZM802.971 596.074V587.777H804.236V588.957C804.846 588.046 805.726 587.59 806.877 587.59C807.377 587.59 807.835 587.681 808.252 587.863C808.674 588.04 808.989 588.275 809.197 588.566C809.406 588.858 809.551 589.204 809.635 589.605C809.687 589.866 809.713 590.322 809.713 590.973V596.074H808.307V591.027C808.307 590.454 808.252 590.027 808.143 589.746C808.033 589.46 807.838 589.233 807.557 589.066C807.281 588.895 806.955 588.809 806.58 588.809C805.981 588.809 805.463 588.999 805.025 589.379C804.593 589.759 804.377 590.48 804.377 591.543V596.074H802.971ZM811.619 596.762L812.986 596.965C813.044 597.387 813.203 597.694 813.463 597.887C813.812 598.147 814.288 598.277 814.893 598.277C815.544 598.277 816.046 598.147 816.4 597.887C816.755 597.626 816.994 597.262 817.119 596.793C817.192 596.507 817.226 595.905 817.221 594.988C816.606 595.712 815.841 596.074 814.924 596.074C813.783 596.074 812.9 595.663 812.275 594.84C811.65 594.017 811.338 593.03 811.338 591.879C811.338 591.087 811.481 590.358 811.768 589.691C812.054 589.02 812.468 588.501 813.01 588.137C813.557 587.772 814.197 587.59 814.932 587.59C815.911 587.59 816.718 587.986 817.354 588.777V587.777H818.65V594.949C818.65 596.241 818.518 597.155 818.252 597.691C817.992 598.233 817.575 598.66 817.002 598.973C816.434 599.285 815.734 599.441 814.9 599.441C813.911 599.441 813.111 599.217 812.502 598.77C811.893 598.327 811.598 597.658 811.619 596.762ZM812.783 591.777C812.783 592.866 812.999 593.66 813.432 594.16C813.864 594.66 814.406 594.91 815.057 594.91C815.703 594.91 816.244 594.663 816.682 594.168C817.119 593.668 817.338 592.887 817.338 591.824C817.338 590.809 817.111 590.043 816.658 589.527C816.21 589.012 815.669 588.754 815.033 588.754C814.408 588.754 813.877 589.009 813.44 589.52C813.002 590.025 812.783 590.777 812.783 591.777ZM826.463 593.402L827.916 593.582C827.687 594.431 827.262 595.09 826.643 595.559C826.023 596.027 825.231 596.262 824.268 596.262C823.054 596.262 822.091 595.889 821.377 595.145C820.669 594.395 820.315 593.345 820.315 591.996C820.315 590.6 820.674 589.517 821.393 588.746C822.111 587.975 823.044 587.59 824.19 587.59C825.299 587.59 826.205 587.967 826.908 588.723C827.611 589.478 827.963 590.54 827.963 591.91C827.963 591.993 827.96 592.118 827.955 592.285H821.768C821.82 593.197 822.078 593.895 822.541 594.379C823.005 594.863 823.583 595.105 824.275 595.105C824.791 595.105 825.231 594.97 825.596 594.699C825.96 594.428 826.249 593.996 826.463 593.402ZM821.846 591.129H826.479C826.416 590.431 826.239 589.908 825.947 589.559C825.499 589.017 824.919 588.746 824.205 588.746C823.559 588.746 823.015 588.962 822.572 589.395C822.135 589.827 821.893 590.405 821.846 591.129ZM829.674 596.074V587.777H830.94V589.035C831.262 588.447 831.559 588.059 831.83 587.871C832.106 587.684 832.408 587.59 832.736 587.59C833.21 587.59 833.692 587.741 834.182 588.043L833.697 589.348C833.354 589.145 833.01 589.043 832.666 589.043C832.359 589.043 832.083 589.137 831.838 589.324C831.593 589.507 831.419 589.762 831.315 590.09C831.158 590.59 831.08 591.137 831.08 591.73V596.074H829.674ZM842.158 599.441C841.382 598.462 840.726 597.316 840.19 596.004C839.653 594.691 839.385 593.332 839.385 591.926C839.385 590.686 839.585 589.499 839.986 588.363C840.455 587.046 841.179 585.733 842.158 584.426H843.166C842.536 585.509 842.119 586.283 841.916 586.746C841.598 587.465 841.348 588.215 841.166 588.996C840.942 589.97 840.83 590.949 840.83 591.934C840.83 594.439 841.609 596.941 843.166 599.441H842.158ZM844.541 596.762L845.908 596.965C845.966 597.387 846.124 597.694 846.385 597.887C846.734 598.147 847.21 598.277 847.815 598.277C848.466 598.277 848.968 598.147 849.322 597.887C849.676 597.626 849.916 597.262 850.041 596.793C850.114 596.507 850.148 595.905 850.143 594.988C849.528 595.712 848.762 596.074 847.846 596.074C846.705 596.074 845.822 595.663 845.197 594.84C844.572 594.017 844.26 593.03 844.26 591.879C844.26 591.087 844.403 590.358 844.69 589.691C844.976 589.02 845.39 588.501 845.932 588.137C846.479 587.772 847.119 587.59 847.854 587.59C848.833 587.59 849.64 587.986 850.275 588.777V587.777H851.572V594.949C851.572 596.241 851.44 597.155 851.174 597.691C850.913 598.233 850.497 598.66 849.924 598.973C849.356 599.285 848.656 599.441 847.822 599.441C846.833 599.441 846.033 599.217 845.424 598.77C844.815 598.327 844.52 597.658 844.541 596.762ZM845.705 591.777C845.705 592.866 845.921 593.66 846.354 594.16C846.786 594.66 847.328 594.91 847.979 594.91C848.624 594.91 849.166 594.663 849.604 594.168C850.041 593.668 850.26 592.887 850.26 591.824C850.26 590.809 850.033 590.043 849.58 589.527C849.132 589.012 848.591 588.754 847.955 588.754C847.33 588.754 846.799 589.009 846.361 589.52C845.924 590.025 845.705 590.777 845.705 591.777ZM859.385 593.402L860.838 593.582C860.609 594.431 860.184 595.09 859.565 595.559C858.945 596.027 858.153 596.262 857.19 596.262C855.976 596.262 855.012 595.889 854.299 595.145C853.591 594.395 853.236 593.345 853.236 591.996C853.236 590.6 853.596 589.517 854.315 588.746C855.033 587.975 855.966 587.59 857.111 587.59C858.221 587.59 859.127 587.967 859.83 588.723C860.533 589.478 860.885 590.54 860.885 591.91C860.885 591.993 860.882 592.118 860.877 592.285H854.69C854.742 593.197 854.999 593.895 855.463 594.379C855.926 594.863 856.505 595.105 857.197 595.105C857.713 595.105 858.153 594.97 858.518 594.699C858.882 594.428 859.171 593.996 859.385 593.402ZM854.768 591.129H859.4C859.338 590.431 859.161 589.908 858.869 589.559C858.421 589.017 857.841 588.746 857.127 588.746C856.481 588.746 855.937 588.962 855.494 589.395C855.057 589.827 854.815 590.405 854.768 591.129ZM862.611 596.074V587.777H863.877V588.957C864.486 588.046 865.367 587.59 866.518 587.59C867.018 587.59 867.476 587.681 867.893 587.863C868.315 588.04 868.63 588.275 868.838 588.566C869.046 588.858 869.192 589.204 869.275 589.605C869.328 589.866 869.354 590.322 869.354 590.973V596.074H867.947V591.027C867.947 590.454 867.893 590.027 867.783 589.746C867.674 589.46 867.479 589.233 867.197 589.066C866.921 588.895 866.596 588.809 866.221 588.809C865.622 588.809 865.104 588.999 864.666 589.379C864.234 589.759 864.018 590.48 864.018 591.543V596.074H862.611ZM871.518 596.074V587.777H872.783V588.957C873.393 588.046 874.273 587.59 875.424 587.59C875.924 587.59 876.382 587.681 876.799 587.863C877.221 588.04 877.536 588.275 877.744 588.566C877.953 588.858 878.098 589.204 878.182 589.605C878.234 589.866 878.26 590.322 878.26 590.973V596.074H876.854V591.027C876.854 590.454 876.799 590.027 876.69 589.746C876.58 589.46 876.385 589.233 876.104 589.066C875.828 588.895 875.502 588.809 875.127 588.809C874.528 588.809 874.01 588.999 873.572 589.379C873.14 589.759 872.924 590.48 872.924 591.543V596.074H871.518ZM886.104 593.402L887.557 593.582C887.328 594.431 886.903 595.09 886.283 595.559C885.663 596.027 884.872 596.262 883.908 596.262C882.695 596.262 881.731 595.889 881.018 595.145C880.309 594.395 879.955 593.345 879.955 591.996C879.955 590.6 880.315 589.517 881.033 588.746C881.752 587.975 882.684 587.59 883.83 587.59C884.94 587.59 885.846 587.967 886.549 588.723C887.252 589.478 887.604 590.54 887.604 591.91C887.604 591.993 887.601 592.118 887.596 592.285H881.408C881.46 593.197 881.718 593.895 882.182 594.379C882.645 594.863 883.223 595.105 883.916 595.105C884.432 595.105 884.872 594.97 885.236 594.699C885.601 594.428 885.89 593.996 886.104 593.402ZM881.486 591.129H886.119C886.057 590.431 885.88 589.908 885.588 589.559C885.14 589.017 884.559 588.746 883.846 588.746C883.2 588.746 882.656 588.962 882.213 589.395C881.775 589.827 881.533 590.405 881.486 591.129ZM889.33 596.074V587.777H890.588V588.941C890.848 588.535 891.195 588.21 891.627 587.965C892.059 587.715 892.551 587.59 893.104 587.59C893.718 587.59 894.221 587.717 894.611 587.973C895.007 588.228 895.286 588.585 895.447 589.043C896.104 588.074 896.958 587.59 898.01 587.59C898.833 587.59 899.466 587.819 899.908 588.277C900.351 588.73 900.572 589.431 900.572 590.379V596.074H899.174V590.848C899.174 590.285 899.127 589.882 899.033 589.637C898.945 589.387 898.781 589.186 898.541 589.035C898.301 588.884 898.02 588.809 897.697 588.809C897.114 588.809 896.63 589.004 896.244 589.395C895.859 589.78 895.666 590.4 895.666 591.254V596.074H894.26V590.684C894.26 590.059 894.145 589.59 893.916 589.277C893.687 588.965 893.312 588.809 892.791 588.809C892.395 588.809 892.028 588.913 891.69 589.121C891.356 589.329 891.114 589.634 890.963 590.035C890.812 590.436 890.736 591.014 890.736 591.77V596.074H889.33ZM902.096 593.598L903.486 593.379C903.565 593.936 903.781 594.363 904.135 594.66C904.494 594.957 904.994 595.105 905.635 595.105C906.281 595.105 906.76 594.975 907.072 594.715C907.385 594.449 907.541 594.139 907.541 593.785C907.541 593.467 907.403 593.217 907.127 593.035C906.934 592.91 906.455 592.751 905.69 592.559C904.658 592.298 903.942 592.074 903.541 591.887C903.145 591.694 902.843 591.431 902.635 591.098C902.432 590.759 902.33 590.387 902.33 589.98C902.33 589.611 902.413 589.27 902.58 588.957C902.752 588.639 902.984 588.376 903.275 588.168C903.494 588.007 903.791 587.871 904.166 587.762C904.546 587.647 904.953 587.59 905.385 587.59C906.036 587.59 906.606 587.684 907.096 587.871C907.591 588.059 907.955 588.314 908.19 588.637C908.424 588.954 908.585 589.382 908.674 589.918L907.299 590.105C907.236 589.678 907.054 589.345 906.752 589.105C906.455 588.866 906.033 588.746 905.486 588.746C904.841 588.746 904.38 588.853 904.104 589.066C903.828 589.28 903.69 589.53 903.69 589.816C903.69 589.999 903.747 590.163 903.861 590.309C903.976 590.46 904.156 590.585 904.4 590.684C904.541 590.736 904.955 590.855 905.643 591.043C906.637 591.309 907.33 591.527 907.721 591.699C908.117 591.866 908.426 592.111 908.65 592.434C908.874 592.757 908.986 593.158 908.986 593.637C908.986 594.105 908.848 594.548 908.572 594.965C908.301 595.376 907.908 595.697 907.393 595.926C906.877 596.15 906.294 596.262 905.643 596.262C904.565 596.262 903.742 596.038 903.174 595.59C902.611 595.142 902.252 594.478 902.096 593.598ZM910.658 596.074V587.777H911.924V588.957C912.533 588.046 913.413 587.59 914.565 587.59C915.065 587.59 915.523 587.681 915.94 587.863C916.361 588.04 916.676 588.275 916.885 588.566C917.093 588.858 917.239 589.204 917.322 589.605C917.374 589.866 917.4 590.322 917.4 590.973V596.074H915.994V591.027C915.994 590.454 915.94 590.027 915.83 589.746C915.721 589.46 915.525 589.233 915.244 589.066C914.968 588.895 914.643 588.809 914.268 588.809C913.669 588.809 913.15 588.999 912.713 589.379C912.281 589.759 912.065 590.48 912.065 591.543V596.074H910.658ZM919.572 586.238V584.621H920.979V586.238H919.572ZM919.572 596.074V587.777H920.979V596.074H919.572ZM926.197 594.816L926.4 596.059C926.005 596.142 925.65 596.184 925.338 596.184C924.828 596.184 924.432 596.103 924.15 595.941C923.869 595.78 923.671 595.569 923.557 595.309C923.442 595.043 923.385 594.488 923.385 593.645V588.871H922.354V587.777H923.385V585.723L924.783 584.879V587.777H926.197V588.871H924.783V593.723C924.783 594.124 924.807 594.382 924.854 594.496C924.906 594.611 924.986 594.702 925.096 594.77C925.21 594.837 925.372 594.871 925.58 594.871C925.736 594.871 925.942 594.853 926.197 594.816ZM928.502 599.441H927.494C929.051 596.941 929.83 594.439 929.83 591.934C929.83 590.954 929.718 589.983 929.494 589.02C929.317 588.238 929.07 587.488 928.752 586.77C928.549 586.301 928.13 585.52 927.494 584.426H928.502C929.481 585.733 930.205 587.046 930.674 588.363C931.075 589.499 931.275 590.686 931.275 591.926C931.275 593.332 931.005 594.691 930.463 596.004C929.926 597.316 929.273 598.462 928.502 599.441Z" fill="black"/>
<path d="M710.042 635.681V624.228H713.987C714.878 624.228 715.558 624.283 716.026 624.392C716.683 624.543 717.243 624.817 717.706 625.213C718.31 625.723 718.761 626.377 719.058 627.173C719.36 627.965 719.511 628.871 719.511 629.892C719.511 630.762 719.409 631.533 719.206 632.205C719.003 632.877 718.743 633.434 718.425 633.877C718.107 634.314 717.758 634.66 717.378 634.916C717.003 635.166 716.547 635.356 716.011 635.486C715.48 635.616 714.868 635.681 714.175 635.681H710.042ZM711.558 634.33H714.003C714.758 634.33 715.349 634.259 715.776 634.119C716.209 633.978 716.552 633.78 716.808 633.525C717.167 633.166 717.446 632.684 717.644 632.08C717.847 631.47 717.948 630.733 717.948 629.869C717.948 628.671 717.75 627.752 717.355 627.111C716.964 626.465 716.487 626.033 715.925 625.814C715.519 625.658 714.865 625.58 713.964 625.58H711.558V634.33ZM721.433 625.845V624.228H722.839V625.845H721.433ZM721.433 635.681V627.384H722.839V635.681H721.433ZM724.73 636.369L726.097 636.572C726.154 636.994 726.313 637.301 726.573 637.494C726.922 637.754 727.399 637.884 728.003 637.884C728.654 637.884 729.157 637.754 729.511 637.494C729.865 637.233 730.105 636.869 730.23 636.4C730.302 636.114 730.336 635.512 730.331 634.595C729.717 635.319 728.951 635.681 728.034 635.681C726.894 635.681 726.011 635.27 725.386 634.447C724.761 633.624 724.448 632.637 724.448 631.486C724.448 630.694 724.592 629.965 724.878 629.298C725.164 628.627 725.579 628.108 726.12 627.744C726.667 627.379 727.308 627.197 728.042 627.197C729.021 627.197 729.829 627.593 730.464 628.384V627.384H731.761V634.556C731.761 635.848 731.628 636.762 731.362 637.298C731.102 637.84 730.685 638.267 730.112 638.58C729.545 638.892 728.844 639.048 728.011 639.048C727.021 639.048 726.222 638.825 725.612 638.377C725.003 637.934 724.709 637.265 724.73 636.369ZM725.894 631.384C725.894 632.473 726.11 633.267 726.542 633.767C726.974 634.267 727.516 634.517 728.167 634.517C728.813 634.517 729.355 634.27 729.792 633.775C730.23 633.275 730.448 632.494 730.448 631.431C730.448 630.416 730.222 629.65 729.769 629.134C729.321 628.619 728.779 628.361 728.144 628.361C727.519 628.361 726.987 628.616 726.55 629.127C726.112 629.632 725.894 630.384 725.894 631.384ZM733.901 625.845V624.228H735.308V625.845H733.901ZM733.901 635.681V627.384H735.308V635.681H733.901ZM740.526 634.423L740.73 635.666C740.334 635.749 739.98 635.791 739.667 635.791C739.157 635.791 738.761 635.71 738.48 635.548C738.198 635.387 738 635.176 737.886 634.916C737.771 634.65 737.714 634.095 737.714 633.252V628.478H736.683V627.384H737.714V625.33L739.112 624.486V627.384H740.526V628.478H739.112V633.33C739.112 633.731 739.136 633.989 739.183 634.103C739.235 634.218 739.315 634.309 739.425 634.377C739.539 634.444 739.701 634.478 739.909 634.478C740.065 634.478 740.271 634.46 740.526 634.423ZM747.323 634.658C746.802 635.101 746.3 635.413 745.815 635.595C745.336 635.778 744.821 635.869 744.269 635.869C743.357 635.869 742.657 635.647 742.167 635.205C741.677 634.757 741.433 634.186 741.433 633.494C741.433 633.088 741.524 632.718 741.706 632.384C741.894 632.046 742.136 631.775 742.433 631.572C742.735 631.369 743.073 631.215 743.448 631.111C743.724 631.038 744.141 630.968 744.698 630.9C745.834 630.765 746.67 630.603 747.206 630.416C747.211 630.223 747.214 630.101 747.214 630.048C747.214 629.476 747.081 629.072 746.815 628.838C746.456 628.52 745.922 628.361 745.214 628.361C744.552 628.361 744.063 628.478 743.745 628.713C743.433 628.942 743.201 629.351 743.05 629.939L741.675 629.752C741.8 629.163 742.006 628.689 742.292 628.33C742.579 627.965 742.993 627.686 743.534 627.494C744.076 627.296 744.704 627.197 745.417 627.197C746.125 627.197 746.701 627.28 747.144 627.447C747.586 627.614 747.912 627.825 748.12 628.08C748.329 628.33 748.474 628.647 748.558 629.033C748.605 629.272 748.628 629.705 748.628 630.33V632.205C748.628 633.512 748.657 634.34 748.714 634.689C748.776 635.033 748.896 635.364 749.073 635.681H747.605C747.459 635.39 747.365 635.048 747.323 634.658ZM747.206 631.517C746.696 631.726 745.93 631.903 744.909 632.048C744.331 632.132 743.922 632.226 743.683 632.33C743.443 632.434 743.258 632.588 743.128 632.791C742.998 632.989 742.933 633.21 742.933 633.455C742.933 633.83 743.073 634.142 743.355 634.392C743.641 634.642 744.058 634.767 744.605 634.767C745.146 634.767 745.628 634.65 746.05 634.416C746.472 634.176 746.782 633.851 746.98 633.439C747.131 633.121 747.206 632.653 747.206 632.033V631.517ZM750.784 635.681V624.228H752.19V635.681H750.784ZM760.058 633.009L761.511 633.189C761.282 634.038 760.857 634.697 760.237 635.166C759.618 635.634 758.826 635.869 757.862 635.869C756.649 635.869 755.685 635.496 754.972 634.752C754.263 634.002 753.909 632.952 753.909 631.603C753.909 630.207 754.269 629.124 754.987 628.353C755.706 627.582 756.638 627.197 757.784 627.197C758.894 627.197 759.8 627.575 760.503 628.33C761.206 629.085 761.558 630.147 761.558 631.517C761.558 631.601 761.555 631.726 761.55 631.892H755.362C755.414 632.804 755.672 633.502 756.136 633.986C756.599 634.47 757.177 634.713 757.87 634.713C758.386 634.713 758.826 634.577 759.19 634.306C759.555 634.035 759.844 633.603 760.058 633.009ZM755.44 630.736H760.073C760.011 630.038 759.834 629.515 759.542 629.166C759.094 628.624 758.513 628.353 757.8 628.353C757.154 628.353 756.61 628.569 756.167 629.002C755.73 629.434 755.487 630.012 755.44 630.736ZM769.034 635.681H767.73V624.228H769.136V628.314C769.73 627.569 770.487 627.197 771.409 627.197C771.92 627.197 772.401 627.301 772.855 627.509C773.313 627.713 773.688 628.002 773.98 628.377C774.276 628.746 774.508 629.194 774.675 629.72C774.842 630.246 774.925 630.809 774.925 631.408C774.925 632.83 774.573 633.929 773.87 634.705C773.167 635.481 772.323 635.869 771.339 635.869C770.36 635.869 769.592 635.46 769.034 634.642V635.681ZM769.019 631.47C769.019 632.465 769.154 633.184 769.425 633.627C769.868 634.351 770.467 634.713 771.222 634.713C771.836 634.713 772.368 634.447 772.815 633.916C773.263 633.379 773.487 632.582 773.487 631.525C773.487 630.442 773.271 629.642 772.839 629.127C772.412 628.611 771.894 628.353 771.284 628.353C770.67 628.353 770.138 628.621 769.69 629.158C769.243 629.689 769.019 630.46 769.019 631.47ZM782.323 633.009L783.776 633.189C783.547 634.038 783.123 634.697 782.503 635.166C781.883 635.634 781.092 635.869 780.128 635.869C778.914 635.869 777.951 635.496 777.237 634.752C776.529 634.002 776.175 632.952 776.175 631.603C776.175 630.207 776.534 629.124 777.253 628.353C777.972 627.582 778.904 627.197 780.05 627.197C781.159 627.197 782.065 627.575 782.769 628.33C783.472 629.085 783.823 630.147 783.823 631.517C783.823 631.601 783.821 631.726 783.815 631.892H777.628C777.68 632.804 777.938 633.502 778.401 633.986C778.865 634.47 779.443 634.713 780.136 634.713C780.651 634.713 781.092 634.577 781.456 634.306C781.821 634.035 782.11 633.603 782.323 633.009ZM777.706 630.736H782.339C782.276 630.038 782.099 629.515 781.808 629.166C781.36 628.624 780.779 628.353 780.065 628.353C779.42 628.353 778.875 628.569 778.433 629.002C777.995 629.434 777.753 630.012 777.706 630.736ZM788.62 634.423L788.823 635.666C788.427 635.749 788.073 635.791 787.761 635.791C787.25 635.791 786.855 635.71 786.573 635.548C786.292 635.387 786.094 635.176 785.98 634.916C785.865 634.65 785.808 634.095 785.808 633.252V628.478H784.776V627.384H785.808V625.33L787.206 624.486V627.384H788.62V628.478H787.206V633.33C787.206 633.731 787.23 633.989 787.276 634.103C787.329 634.218 787.409 634.309 787.519 634.377C787.633 634.444 787.795 634.478 788.003 634.478C788.159 634.478 788.365 634.46 788.62 634.423ZM795.417 634.658C794.896 635.101 794.394 635.413 793.909 635.595C793.43 635.778 792.914 635.869 792.362 635.869C791.451 635.869 790.75 635.647 790.261 635.205C789.771 634.757 789.526 634.186 789.526 633.494C789.526 633.088 789.618 632.718 789.8 632.384C789.987 632.046 790.23 631.775 790.526 631.572C790.829 631.369 791.167 631.215 791.542 631.111C791.818 631.038 792.235 630.968 792.792 630.9C793.927 630.765 794.763 630.603 795.3 630.416C795.305 630.223 795.308 630.101 795.308 630.048C795.308 629.476 795.175 629.072 794.909 628.838C794.55 628.52 794.016 628.361 793.308 628.361C792.646 628.361 792.157 628.478 791.839 628.713C791.526 628.942 791.295 629.351 791.144 629.939L789.769 629.752C789.894 629.163 790.099 628.689 790.386 628.33C790.672 627.965 791.086 627.686 791.628 627.494C792.17 627.296 792.797 627.197 793.511 627.197C794.219 627.197 794.795 627.28 795.237 627.447C795.68 627.614 796.006 627.825 796.214 628.08C796.422 628.33 796.568 628.647 796.651 629.033C796.698 629.272 796.722 629.705 796.722 630.33V632.205C796.722 633.512 796.75 634.34 796.808 634.689C796.87 635.033 796.99 635.364 797.167 635.681H795.698C795.552 635.39 795.459 635.048 795.417 634.658ZM795.3 631.517C794.789 631.726 794.024 631.903 793.003 632.048C792.425 632.132 792.016 632.226 791.776 632.33C791.537 632.434 791.352 632.588 791.222 632.791C791.092 632.989 791.026 633.21 791.026 633.455C791.026 633.83 791.167 634.142 791.448 634.392C791.735 634.642 792.151 634.767 792.698 634.767C793.24 634.767 793.722 634.65 794.144 634.416C794.565 634.176 794.875 633.851 795.073 633.439C795.224 633.121 795.3 632.653 795.3 632.033V631.517ZM798.878 635.681V624.228H800.284V635.681H798.878ZM802.48 625.845V624.228H803.886V625.845H802.48ZM802.48 635.681V627.384H803.886V635.681H802.48ZM806.034 635.681V627.384H807.3V628.564C807.909 627.653 808.789 627.197 809.94 627.197C810.44 627.197 810.899 627.288 811.315 627.47C811.737 627.647 812.052 627.882 812.261 628.173C812.469 628.465 812.615 628.811 812.698 629.213C812.75 629.473 812.776 629.929 812.776 630.58V635.681H811.37V630.634C811.37 630.061 811.315 629.634 811.206 629.353C811.097 629.067 810.901 628.84 810.62 628.673C810.344 628.502 810.019 628.416 809.644 628.416C809.045 628.416 808.526 628.606 808.089 628.986C807.657 629.366 807.44 630.088 807.44 631.15V635.681H806.034ZM814.683 636.369L816.05 636.572C816.107 636.994 816.266 637.301 816.526 637.494C816.875 637.754 817.352 637.884 817.956 637.884C818.607 637.884 819.11 637.754 819.464 637.494C819.818 637.233 820.058 636.869 820.183 636.4C820.256 636.114 820.289 635.512 820.284 634.595C819.67 635.319 818.904 635.681 817.987 635.681C816.847 635.681 815.964 635.27 815.339 634.447C814.714 633.624 814.401 632.637 814.401 631.486C814.401 630.694 814.545 629.965 814.831 629.298C815.118 628.627 815.532 628.108 816.073 627.744C816.62 627.379 817.261 627.197 817.995 627.197C818.974 627.197 819.782 627.593 820.417 628.384V627.384H821.714V634.556C821.714 635.848 821.581 636.762 821.315 637.298C821.055 637.84 820.638 638.267 820.065 638.58C819.498 638.892 818.797 639.048 817.964 639.048C816.974 639.048 816.175 638.825 815.565 638.377C814.956 637.934 814.662 637.265 814.683 636.369ZM815.847 631.384C815.847 632.473 816.063 633.267 816.495 633.767C816.927 634.267 817.469 634.517 818.12 634.517C818.766 634.517 819.308 634.27 819.745 633.775C820.183 633.275 820.401 632.494 820.401 631.431C820.401 630.416 820.175 629.65 819.722 629.134C819.274 628.619 818.732 628.361 818.097 628.361C817.472 628.361 816.94 628.616 816.503 629.127C816.065 629.632 815.847 630.384 815.847 631.384ZM829.526 633.009L830.98 633.189C830.75 634.038 830.326 634.697 829.706 635.166C829.086 635.634 828.295 635.869 827.331 635.869C826.118 635.869 825.154 635.496 824.44 634.752C823.732 634.002 823.378 632.952 823.378 631.603C823.378 630.207 823.737 629.124 824.456 628.353C825.175 627.582 826.107 627.197 827.253 627.197C828.362 627.197 829.269 627.575 829.972 628.33C830.675 629.085 831.026 630.147 831.026 631.517C831.026 631.601 831.024 631.726 831.019 631.892H824.831C824.883 632.804 825.141 633.502 825.605 633.986C826.068 634.47 826.646 634.713 827.339 634.713C827.855 634.713 828.295 634.577 828.659 634.306C829.024 634.035 829.313 633.603 829.526 633.009ZM824.909 630.736H829.542C829.48 630.038 829.302 629.515 829.011 629.166C828.563 628.624 827.982 628.353 827.269 628.353C826.623 628.353 826.079 628.569 825.636 629.002C825.198 629.434 824.956 630.012 824.909 630.736ZM832.737 635.681V627.384H834.003V628.642C834.326 628.054 834.623 627.666 834.894 627.478C835.17 627.291 835.472 627.197 835.8 627.197C836.274 627.197 836.756 627.348 837.245 627.65L836.761 628.955C836.417 628.752 836.073 628.65 835.73 628.65C835.422 628.65 835.146 628.744 834.901 628.931C834.657 629.114 834.482 629.369 834.378 629.697C834.222 630.197 834.144 630.744 834.144 631.338V635.681H832.737ZM845.222 639.048C844.446 638.069 843.789 636.923 843.253 635.611C842.717 634.298 842.448 632.939 842.448 631.533C842.448 630.293 842.649 629.106 843.05 627.97C843.519 626.653 844.243 625.34 845.222 624.033H846.23C845.599 625.116 845.183 625.89 844.98 626.353C844.662 627.072 844.412 627.822 844.23 628.603C844.006 629.577 843.894 630.556 843.894 631.541C843.894 634.046 844.672 636.548 846.23 639.048H845.222ZM847.605 636.369L848.972 636.572C849.029 636.994 849.188 637.301 849.448 637.494C849.797 637.754 850.274 637.884 850.878 637.884C851.529 637.884 852.032 637.754 852.386 637.494C852.74 637.233 852.98 636.869 853.105 636.4C853.177 636.114 853.211 635.512 853.206 634.595C852.592 635.319 851.826 635.681 850.909 635.681C849.769 635.681 848.886 635.27 848.261 634.447C847.636 633.624 847.323 632.637 847.323 631.486C847.323 630.694 847.467 629.965 847.753 629.298C848.039 628.627 848.454 628.108 848.995 627.744C849.542 627.379 850.183 627.197 850.917 627.197C851.896 627.197 852.704 627.593 853.339 628.384V627.384H854.636V634.556C854.636 635.848 854.503 636.762 854.237 637.298C853.977 637.84 853.56 638.267 852.987 638.58C852.42 638.892 851.719 639.048 850.886 639.048C849.896 639.048 849.097 638.825 848.487 638.377C847.878 637.934 847.584 637.265 847.605 636.369ZM848.769 631.384C848.769 632.473 848.985 633.267 849.417 633.767C849.849 634.267 850.391 634.517 851.042 634.517C851.688 634.517 852.23 634.27 852.667 633.775C853.105 633.275 853.323 632.494 853.323 631.431C853.323 630.416 853.097 629.65 852.644 629.134C852.196 628.619 851.654 628.361 851.019 628.361C850.394 628.361 849.862 628.616 849.425 629.127C848.987 629.632 848.769 630.384 848.769 631.384ZM862.448 633.009L863.901 633.189C863.672 634.038 863.248 634.697 862.628 635.166C862.008 635.634 861.217 635.869 860.253 635.869C859.039 635.869 858.076 635.496 857.362 634.752C856.654 634.002 856.3 632.952 856.3 631.603C856.3 630.207 856.659 629.124 857.378 628.353C858.097 627.582 859.029 627.197 860.175 627.197C861.284 627.197 862.19 627.575 862.894 628.33C863.597 629.085 863.948 630.147 863.948 631.517C863.948 631.601 863.946 631.726 863.94 631.892H857.753C857.805 632.804 858.063 633.502 858.526 633.986C858.99 634.47 859.568 634.713 860.261 634.713C860.776 634.713 861.217 634.577 861.581 634.306C861.946 634.035 862.235 633.603 862.448 633.009ZM857.831 630.736H862.464C862.401 630.038 862.224 629.515 861.933 629.166C861.485 628.624 860.904 628.353 860.19 628.353C859.545 628.353 859 628.569 858.558 629.002C858.12 629.434 857.878 630.012 857.831 630.736ZM865.675 635.681V627.384H866.94V628.564C867.55 627.653 868.43 627.197 869.581 627.197C870.081 627.197 870.539 627.288 870.956 627.47C871.378 627.647 871.693 627.882 871.901 628.173C872.11 628.465 872.256 628.811 872.339 629.213C872.391 629.473 872.417 629.929 872.417 630.58V635.681H871.011V630.634C871.011 630.061 870.956 629.634 870.847 629.353C870.737 629.067 870.542 628.84 870.261 628.673C869.985 628.502 869.659 628.416 869.284 628.416C868.685 628.416 868.167 628.606 867.73 628.986C867.297 629.366 867.081 630.088 867.081 631.15V635.681H865.675ZM874.581 635.681V627.384H875.847V628.564C876.456 627.653 877.336 627.197 878.487 627.197C878.987 627.197 879.446 627.288 879.862 627.47C880.284 627.647 880.599 627.882 880.808 628.173C881.016 628.465 881.162 628.811 881.245 629.213C881.297 629.473 881.323 629.929 881.323 630.58V635.681H879.917V630.634C879.917 630.061 879.862 629.634 879.753 629.353C879.644 629.067 879.448 628.84 879.167 628.673C878.891 628.502 878.565 628.416 878.19 628.416C877.592 628.416 877.073 628.606 876.636 628.986C876.204 629.366 875.987 630.088 875.987 631.15V635.681H874.581ZM889.167 633.009L890.62 633.189C890.391 634.038 889.967 634.697 889.347 635.166C888.727 635.634 887.935 635.869 886.972 635.869C885.758 635.869 884.795 635.496 884.081 634.752C883.373 634.002 883.019 632.952 883.019 631.603C883.019 630.207 883.378 629.124 884.097 628.353C884.815 627.582 885.748 627.197 886.894 627.197C888.003 627.197 888.909 627.575 889.612 628.33C890.315 629.085 890.667 630.147 890.667 631.517C890.667 631.601 890.664 631.726 890.659 631.892H884.472C884.524 632.804 884.782 633.502 885.245 633.986C885.709 634.47 886.287 634.713 886.98 634.713C887.495 634.713 887.935 634.577 888.3 634.306C888.664 634.035 888.954 633.603 889.167 633.009ZM884.55 630.736H889.183C889.12 630.038 888.943 629.515 888.651 629.166C888.204 628.624 887.623 628.353 886.909 628.353C886.263 628.353 885.719 628.569 885.276 629.002C884.839 629.434 884.597 630.012 884.55 630.736ZM892.394 635.681V627.384H893.651V628.548C893.912 628.142 894.258 627.817 894.69 627.572C895.123 627.322 895.615 627.197 896.167 627.197C896.782 627.197 897.284 627.325 897.675 627.58C898.071 627.835 898.349 628.192 898.511 628.65C899.167 627.681 900.021 627.197 901.073 627.197C901.896 627.197 902.529 627.426 902.972 627.884C903.414 628.338 903.636 629.038 903.636 629.986V635.681H902.237V630.455C902.237 629.892 902.19 629.489 902.097 629.244C902.008 628.994 901.844 628.793 901.605 628.642C901.365 628.491 901.084 628.416 900.761 628.416C900.177 628.416 899.693 628.611 899.308 629.002C898.922 629.387 898.73 630.007 898.73 630.861V635.681H897.323V630.291C897.323 629.666 897.209 629.197 896.98 628.884C896.75 628.572 896.375 628.416 895.855 628.416C895.459 628.416 895.092 628.52 894.753 628.728C894.42 628.936 894.177 629.241 894.026 629.642C893.875 630.043 893.8 630.621 893.8 631.377V635.681H892.394ZM905.159 633.205L906.55 632.986C906.628 633.543 906.844 633.97 907.198 634.267C907.558 634.564 908.058 634.713 908.698 634.713C909.344 634.713 909.823 634.582 910.136 634.322C910.448 634.056 910.605 633.746 910.605 633.392C910.605 633.075 910.467 632.825 910.19 632.642C909.998 632.517 909.519 632.358 908.753 632.166C907.722 631.905 907.006 631.681 906.605 631.494C906.209 631.301 905.907 631.038 905.698 630.705C905.495 630.366 905.394 629.994 905.394 629.588C905.394 629.218 905.477 628.877 905.644 628.564C905.815 628.246 906.047 627.983 906.339 627.775C906.558 627.614 906.855 627.478 907.23 627.369C907.61 627.254 908.016 627.197 908.448 627.197C909.099 627.197 909.67 627.291 910.159 627.478C910.654 627.666 911.019 627.921 911.253 628.244C911.487 628.561 911.649 628.989 911.737 629.525L910.362 629.713C910.3 629.285 910.118 628.952 909.815 628.713C909.519 628.473 909.097 628.353 908.55 628.353C907.904 628.353 907.443 628.46 907.167 628.673C906.891 628.887 906.753 629.137 906.753 629.423C906.753 629.606 906.81 629.77 906.925 629.916C907.039 630.067 907.219 630.192 907.464 630.291C907.605 630.343 908.019 630.463 908.706 630.65C909.701 630.916 910.394 631.134 910.784 631.306C911.18 631.473 911.49 631.718 911.714 632.041C911.938 632.364 912.05 632.765 912.05 633.244C912.05 633.713 911.912 634.155 911.636 634.572C911.365 634.983 910.972 635.304 910.456 635.533C909.94 635.757 909.357 635.869 908.706 635.869C907.628 635.869 906.805 635.645 906.237 635.197C905.675 634.749 905.315 634.085 905.159 633.205ZM913.722 635.681V627.384H914.987V628.564C915.597 627.653 916.477 627.197 917.628 627.197C918.128 627.197 918.586 627.288 919.003 627.47C919.425 627.647 919.74 627.882 919.948 628.173C920.157 628.465 920.302 628.811 920.386 629.213C920.438 629.473 920.464 629.929 920.464 630.58V635.681H919.058V630.634C919.058 630.061 919.003 629.634 918.894 629.353C918.784 629.067 918.589 628.84 918.308 628.673C918.032 628.502 917.706 628.416 917.331 628.416C916.732 628.416 916.214 628.606 915.776 628.986C915.344 629.366 915.128 630.088 915.128 631.15V635.681H913.722ZM922.636 625.845V624.228H924.042V625.845H922.636ZM922.636 635.681V627.384H924.042V635.681H922.636ZM929.261 634.423L929.464 635.666C929.068 635.749 928.714 635.791 928.401 635.791C927.891 635.791 927.495 635.71 927.214 635.548C926.933 635.387 926.735 635.176 926.62 634.916C926.506 634.65 926.448 634.095 926.448 633.252V628.478H925.417V627.384H926.448V625.33L927.847 624.486V627.384H929.261V628.478H927.847V633.33C927.847 633.731 927.87 633.989 927.917 634.103C927.969 634.218 928.05 634.309 928.159 634.377C928.274 634.444 928.435 634.478 928.644 634.478C928.8 634.478 929.006 634.46 929.261 634.423ZM931.565 639.048H930.558C932.115 636.548 932.894 634.046 932.894 631.541C932.894 630.561 932.782 629.59 932.558 628.627C932.381 627.845 932.133 627.095 931.815 626.377C931.612 625.908 931.193 625.127 930.558 624.033H931.565C932.545 625.34 933.269 626.653 933.737 627.97C934.138 629.106 934.339 630.293 934.339 631.533C934.339 632.939 934.068 634.298 933.526 635.611C932.99 636.923 932.336 638.069 931.565 639.048Z" fill="black"/>
<defs>
<filter id="filter0_d_4_1253" x="649.689" y="557.617" width="312.06" height="115.666" filterUnits="userSpaceOnUse" color-interpolation-filters="sRGB">
<feFlood flood-opacity="0" result="BackgroundImageFix"/>
<feColorMatrix in="SourceAlpha" type="matrix" values="0 0 0 0 0 0 0 0 0 0 0 0 0 0 0 0 0 0 127 0" result="hardAlpha"/>
<feOffset dy="4"/>
<feGaussianBlur stdDeviation="2"/>
<feComposite in2="hardAlpha" operator="out"/>
<feColorMatrix type="matrix" values="0 0 0 0 0 0 0 0 0 0 0 0 0 0 0 0 0 0 0.25 0"/>
<feBlend mode="normal" in2="BackgroundImageFix" result="effect1_dropShadow_4_1253"/>
<feBlend mode="normal" in="SourceGraphic" in2="effect1_dropShadow_4_1253" result="shape"/>
</filter>
</defs>
</svg>
