<svg width="1143" height="556" viewBox="0 0 1143 556" fill="none" xmlns="http://www.w3.org/2000/svg">
<rect width="1143" height="556" fill="white"/>
<path d="M13.2045 39V37.9773L17.0455 33.7727C17.4962 33.2803 17.8674 32.8523 18.1591 32.4886C18.4508 32.1212 18.6667 31.7765 18.8068 31.4545C18.9508 31.1288 19.0227 30.7879 19.0227 30.4318C19.0227 30.0227 18.9242 29.6686 18.7273 29.3693C18.5341 29.0701 18.2689 28.839 17.9318 28.6761C17.5947 28.5133 17.2159 28.4318 16.7955 28.4318C16.3485 28.4318 15.9583 28.5246 15.625 28.7102C15.2955 28.892 15.0398 29.1477 14.858 29.4773C14.6799 29.8068 14.5909 30.1932 14.5909 30.6364H13.25C13.25 29.9545 13.4072 29.3561 13.7216 28.8409C14.036 28.3258 14.464 27.9242 15.0057 27.6364C15.5511 27.3485 16.1629 27.2045 16.8409 27.2045C17.5227 27.2045 18.1269 27.3485 18.6534 27.6364C19.1799 27.9242 19.5928 28.3125 19.892 28.8011C20.1913 29.2898 20.3409 29.8333 20.3409 30.4318C20.3409 30.8598 20.2633 31.2784 20.108 31.6875C19.9564 32.0928 19.6913 32.5455 19.3125 33.0455C18.9375 33.5417 18.4167 34.1477 17.75 34.8636L15.1364 37.6591V37.75H20.5455V39H13.2045ZM26.5284 39.1591C25.8617 39.1591 25.2614 39.0265 24.7273 38.7614C24.1932 38.4962 23.7652 38.1326 23.4432 37.6705C23.1212 37.2083 22.9451 36.6818 22.9148 36.0909H24.2784C24.3314 36.6174 24.5701 37.053 24.9943 37.3977C25.4223 37.7386 25.9337 37.9091 26.5284 37.9091C27.0057 37.9091 27.4299 37.7973 27.8011 37.5739C28.1761 37.3504 28.4697 37.0436 28.6818 36.6534C28.8977 36.2595 29.0057 35.8144 29.0057 35.3182C29.0057 34.8106 28.8939 34.358 28.6705 33.9602C28.4508 33.5587 28.1477 33.2424 27.7614 33.0114C27.375 32.7803 26.9337 32.6629 26.4375 32.6591C26.0814 32.6553 25.7159 32.7102 25.3409 32.8239C24.9659 32.9337 24.6572 33.0758 24.4148 33.25L23.0966 33.0909L23.8011 27.3636H29.8466V28.6136H24.983L24.5739 32.0455H24.642C24.8807 31.8561 25.1799 31.6989 25.5398 31.5739C25.8996 31.4489 26.2746 31.3864 26.6648 31.3864C27.3769 31.3864 28.0114 31.5568 28.5682 31.8977C29.1288 32.2348 29.5682 32.697 29.8864 33.2841C30.2083 33.8712 30.3693 34.5417 30.3693 35.2955C30.3693 36.0379 30.2027 36.7008 29.8693 37.2841C29.5398 37.8636 29.0852 38.322 28.5057 38.6591C27.9261 38.9924 27.267 39.1591 26.5284 39.1591Z" fill="black" fill-opacity="0.9"/>
<path d="M13.2045 129.6V128.577L17.0455 124.373C17.4962 123.88 17.8674 123.452 18.1591 123.089C18.4508 122.721 18.6667 122.377 18.8068 122.055C18.9508 121.729 19.0227 121.388 19.0227 121.032C19.0227 120.623 18.9242 120.269 18.7273 119.969C18.5341 119.67 18.2689 119.439 17.9318 119.276C17.5947 119.113 17.2159 119.032 16.7955 119.032C16.3485 119.032 15.9583 119.125 15.625 119.31C15.2955 119.492 15.0398 119.748 14.858 120.077C14.6799 120.407 14.5909 120.793 14.5909 121.236H13.25C13.25 120.555 13.4072 119.956 13.7216 119.441C14.036 118.926 14.464 118.524 15.0057 118.236C15.5511 117.948 16.1629 117.805 16.8409 117.805C17.5227 117.805 18.1269 117.948 18.6534 118.236C19.1799 118.524 19.5928 118.913 19.892 119.401C20.1913 119.89 20.3409 120.433 20.3409 121.032C20.3409 121.46 20.2633 121.878 20.108 122.288C19.9564 122.693 19.6913 123.145 19.3125 123.645C18.9375 124.142 18.4167 124.748 17.75 125.464L15.1364 128.259V128.35H20.5455V129.6H13.2045ZM26.6875 129.759C25.8314 129.759 25.1023 129.526 24.5 129.06C23.8977 128.591 23.4375 127.911 23.1193 127.02C22.8011 126.127 22.642 125.047 22.642 123.782C22.642 122.524 22.8011 121.45 23.1193 120.56C23.4413 119.666 23.9034 118.984 24.5057 118.515C25.1117 118.041 25.839 117.805 26.6875 117.805C27.536 117.805 28.2614 118.041 28.8636 118.515C29.4697 118.984 29.9318 119.666 30.25 120.56C30.572 121.45 30.733 122.524 30.733 123.782C30.733 125.047 30.5739 126.127 30.2557 127.02C29.9375 127.911 29.4773 128.591 28.875 129.06C28.2727 129.526 27.5436 129.759 26.6875 129.759ZM26.6875 128.509C27.536 128.509 28.1951 128.1 28.6648 127.282C29.1345 126.464 29.3693 125.297 29.3693 123.782C29.3693 122.774 29.2614 121.916 29.0455 121.208C28.8333 120.5 28.5265 119.96 28.125 119.589C27.7273 119.217 27.2481 119.032 26.6875 119.032C25.8466 119.032 25.1894 119.447 24.7159 120.276C24.2424 121.102 24.0057 122.27 24.0057 123.782C24.0057 124.789 24.1117 125.645 24.3239 126.35C24.536 127.055 24.8409 127.591 25.2386 127.958C25.6402 128.325 26.1231 128.509 26.6875 128.509Z" fill="black" fill-opacity="0.9"/>
<path d="M19.2955 208.564V220.2H17.8864V210.041H17.8182L14.9773 211.927V210.495L17.8864 208.564H19.2955ZM26.2784 220.359C25.6117 220.359 25.0114 220.227 24.4773 219.961C23.9432 219.696 23.5152 219.333 23.1932 218.87C22.8712 218.408 22.6951 217.882 22.6648 217.291H24.0284C24.0814 217.817 24.3201 218.253 24.7443 218.598C25.1723 218.939 25.6837 219.109 26.2784 219.109C26.7557 219.109 27.1799 218.997 27.5511 218.774C27.9261 218.55 28.2197 218.244 28.4318 217.853C28.6477 217.459 28.7557 217.014 28.7557 216.518C28.7557 216.011 28.6439 215.558 28.4205 215.16C28.2008 214.759 27.8977 214.442 27.5114 214.211C27.125 213.98 26.6837 213.863 26.1875 213.859C25.8314 213.855 25.4659 213.91 25.0909 214.024C24.7159 214.134 24.4072 214.276 24.1648 214.45L22.8466 214.291L23.5511 208.564H29.5966V209.814H24.733L24.3239 213.245H24.392C24.6307 213.056 24.9299 212.899 25.2898 212.774C25.6496 212.649 26.0246 212.586 26.4148 212.586C27.1269 212.586 27.7614 212.757 28.3182 213.098C28.8788 213.435 29.3182 213.897 29.6364 214.484C29.9583 215.071 30.1193 215.742 30.1193 216.495C30.1193 217.238 29.9527 217.901 29.6193 218.484C29.2898 219.064 28.8352 219.522 28.2557 219.859C27.6761 220.192 27.017 220.359 26.2784 220.359Z" fill="black" fill-opacity="0.9"/>
<path d="M19.2955 299.164V310.8H17.8864V300.641H17.8182L14.9773 302.527V301.095L17.8864 299.164H19.2955ZM26.4375 310.959C25.5814 310.959 24.8523 310.726 24.25 310.26C23.6477 309.791 23.1875 309.111 22.8693 308.22C22.5511 307.327 22.392 306.247 22.392 304.982C22.392 303.724 22.5511 302.65 22.8693 301.76C23.1913 300.866 23.6534 300.184 24.2557 299.715C24.8617 299.241 25.589 299.005 26.4375 299.005C27.286 299.005 28.0114 299.241 28.6136 299.715C29.2197 300.184 29.6818 300.866 30 301.76C30.322 302.65 30.483 303.724 30.483 304.982C30.483 306.247 30.3239 307.327 30.0057 308.22C29.6875 309.111 29.2273 309.791 28.625 310.26C28.0227 310.726 27.2936 310.959 26.4375 310.959ZM26.4375 309.709C27.286 309.709 27.9451 309.3 28.4148 308.482C28.8845 307.664 29.1193 306.497 29.1193 304.982C29.1193 303.974 29.0114 303.116 28.7955 302.408C28.5833 301.7 28.2765 301.16 27.875 300.789C27.4773 300.417 26.9981 300.232 26.4375 300.232C25.5966 300.232 24.9394 300.647 24.4659 301.476C23.9924 302.302 23.7557 303.47 23.7557 304.982C23.7557 305.989 23.8617 306.845 24.0739 307.55C24.286 308.255 24.5909 308.791 24.9886 309.158C25.3902 309.525 25.8731 309.709 26.4375 309.709Z" fill="black" fill-opacity="0.9"/>
<path d="M26.8409 401.559C26.1742 401.559 25.5739 401.427 25.0398 401.161C24.5057 400.896 24.0777 400.533 23.7557 400.07C23.4337 399.608 23.2576 399.082 23.2273 398.491H24.5909C24.6439 399.017 24.8826 399.453 25.3068 399.798C25.7348 400.139 26.2462 400.309 26.8409 400.309C27.3182 400.309 27.7424 400.197 28.1136 399.974C28.4886 399.75 28.7822 399.444 28.9943 399.053C29.2102 398.659 29.3182 398.214 29.3182 397.718C29.3182 397.211 29.2064 396.758 28.983 396.36C28.7633 395.959 28.4602 395.642 28.0739 395.411C27.6875 395.18 27.2462 395.063 26.75 395.059C26.3939 395.055 26.0284 395.11 25.6534 395.224C25.2784 395.334 24.9697 395.476 24.7273 395.65L23.4091 395.491L24.1136 389.764H30.1591V391.014H25.2955L24.8864 394.445H24.9545C25.1932 394.256 25.4924 394.099 25.8523 393.974C26.2121 393.849 26.5871 393.786 26.9773 393.786C27.6894 393.786 28.3239 393.957 28.8807 394.298C29.4413 394.635 29.8807 395.097 30.1989 395.684C30.5208 396.271 30.6818 396.942 30.6818 397.695C30.6818 398.438 30.5152 399.101 30.1818 399.684C29.8523 400.264 29.3977 400.722 28.8182 401.059C28.2386 401.392 27.5795 401.559 26.8409 401.559Z" fill="black" fill-opacity="0.9"/>
<path d="M27 492.159C26.1439 492.159 25.4148 491.926 24.8125 491.46C24.2102 490.991 23.75 490.311 23.4318 489.42C23.1136 488.527 22.9545 487.447 22.9545 486.182C22.9545 484.924 23.1136 483.85 23.4318 482.96C23.7538 482.066 24.2159 481.384 24.8182 480.915C25.4242 480.441 26.1515 480.205 27 480.205C27.8485 480.205 28.5739 480.441 29.1761 480.915C29.7822 481.384 30.2443 482.066 30.5625 482.96C30.8845 483.85 31.0455 484.924 31.0455 486.182C31.0455 487.447 30.8864 488.527 30.5682 489.42C30.25 490.311 29.7898 490.991 29.1875 491.46C28.5852 491.926 27.8561 492.159 27 492.159ZM27 490.909C27.8485 490.909 28.5076 490.5 28.9773 489.682C29.447 488.864 29.6818 487.697 29.6818 486.182C29.6818 485.174 29.5739 484.316 29.358 483.608C29.1458 482.9 28.839 482.36 28.4375 481.989C28.0398 481.617 27.5606 481.432 27 481.432C26.1591 481.432 25.5019 481.847 25.0284 482.676C24.5549 483.502 24.3182 484.67 24.3182 486.182C24.3182 487.189 24.4242 488.045 24.6364 488.75C24.8485 489.455 25.1534 489.991 25.5511 490.358C25.9527 490.725 26.4356 490.909 27 490.909Z" fill="black" fill-opacity="0.9"/>
<line x1="37" y1="29.5" x2="1134" y2="29.5" stroke="#00001A" stroke-opacity="0.5" stroke-dasharray="2"/>
<line x1="37" y1="121.5" x2="1134" y2="121.5" stroke="#00001A" stroke-opacity="0.5" stroke-dasharray="2"/>
<line x1="37" y1="213.5" x2="1134" y2="213.5" stroke="#00001A" stroke-opacity="0.5" stroke-dasharray="2"/>
<line x1="37" y1="305.5" x2="1134" y2="305.5" stroke="#00001A" stroke-opacity="0.5" stroke-dasharray="2"/>
<line x1="37" y1="397.5" x2="1134" y2="397.5" stroke="#00001A" stroke-opacity="0.5" stroke-dasharray="2"/>
<line x1="37" y1="489.5" x2="1134" y2="489.5" stroke="#00001A" stroke-opacity="0.3"/>
<line x1="36.5" y1="490" x2="36.5" y2="30" stroke="#00001A" stroke-opacity="0.5" stroke-dasharray="2"/>
<line x1="193.214" y1="490" x2="193.214" y2="30" stroke="#00001A" stroke-opacity="0.5" stroke-dasharray="2"/>
<line x1="349.929" y1="490" x2="349.929" y2="30" stroke="#00001A" stroke-opacity="0.5" stroke-dasharray="2"/>
<line x1="506.643" y1="490" x2="506.643" y2="30" stroke="#00001A" stroke-opacity="0.5" stroke-dasharray="2"/>
<line x1="663.357" y1="490" x2="663.357" y2="30" stroke="#00001A" stroke-opacity="0.5" stroke-dasharray="2"/>
<line x1="820.071" y1="490" x2="820.071" y2="30" stroke="#00001A" stroke-opacity="0.5" stroke-dasharray="2"/>
<line x1="976.786" y1="490" x2="976.786" y2="30" stroke="#00001A" stroke-opacity="0.5" stroke-dasharray="2"/>
<line x1="1133.5" y1="490" x2="1133.5" y2="30" stroke="#00001A" stroke-opacity="0.5" stroke-dasharray="2"/>
<path d="M114.5 67.64L271.5 122.6L428.5 159.24L585.5 214.2L742.5 250.84L899.5 269.16L1056.5 287.48M1056.5 287.48V287.48Z" stroke="#FF7979" stroke-width="2"/>
<rect x="114.929" y="68.0693" width="0.858594" height="1.05772" fill="#FF7979"/>
<rect x="114.929" y="68.0693" width="0.858594" height="1.05772" stroke="#FF7979" stroke-width="0.858594"/>
<circle cx="114.5" cy="67.64" r="3.5" fill="#FF7979" stroke="#FF7979"/>
<rect x="271.929" y="123.029" width="0.858594" height="1.05772" fill="#FF7979"/>
<rect x="271.929" y="123.029" width="0.858594" height="1.05772" stroke="#FF7979" stroke-width="0.858594"/>
<circle cx="271.5" cy="122.6" r="3.5" fill="#FF7979" stroke="#FF7979"/>
<rect x="428.929" y="159.669" width="0.858594" height="1.05772" fill="#FF7979"/>
<rect x="428.929" y="159.669" width="0.858594" height="1.05772" stroke="#FF7979" stroke-width="0.858594"/>
<circle cx="428.5" cy="159.24" r="3.5" fill="#FF7979" stroke="#FF7979"/>
<rect x="585.929" y="214.629" width="0.858594" height="1.05772" fill="#FF7979"/>
<rect x="585.929" y="214.629" width="0.858594" height="1.05772" stroke="#FF7979" stroke-width="0.858594"/>
<circle cx="585.5" cy="214.2" r="3.5" fill="#FF7979" stroke="#FF7979"/>
<rect x="742.929" y="251.269" width="0.858594" height="1.05772" fill="#FF7979"/>
<rect x="742.929" y="251.269" width="0.858594" height="1.05772" stroke="#FF7979" stroke-width="0.858594"/>
<circle cx="742.5" cy="250.84" r="3.5" fill="#FF7979" stroke="#FF7979"/>
<rect x="899.929" y="269.589" width="0.858594" height="1.05772" fill="#FF7979"/>
<rect x="899.929" y="269.589" width="0.858594" height="1.05772" stroke="#FF7979" stroke-width="0.858594"/>
<circle cx="899.5" cy="269.16" r="3.5" fill="#FF7979" stroke="#FF7979"/>
<rect x="1056.93" y="287.909" width="0.858594" height="1.05772" fill="#FF7979"/>
<rect x="1056.93" y="287.909" width="0.858594" height="1.05772" stroke="#FF7979" stroke-width="0.858594"/>
<circle cx="1056.5" cy="287.48" r="3.5" fill="#FF7979" stroke="#FF7979"/>
<path d="M92.9289 509V507.977L96.7698 503.773C97.2205 503.28 97.5918 502.852 97.8834 502.489C98.1751 502.121 98.391 501.777 98.5311 501.455C98.6751 501.129 98.7471 500.788 98.7471 500.432C98.7471 500.023 98.6486 499.669 98.4516 499.369C98.2584 499.07 97.9933 498.839 97.6561 498.676C97.319 498.513 96.9402 498.432 96.5198 498.432C96.0728 498.432 95.6827 498.525 95.3493 498.71C95.0198 498.892 94.7641 499.148 94.5823 499.477C94.4043 499.807 94.3152 500.193 94.3152 500.636H92.9743C92.9743 499.955 93.1315 499.356 93.4459 498.841C93.7603 498.326 94.1883 497.924 94.73 497.636C95.2755 497.348 95.8872 497.205 96.5652 497.205C97.2471 497.205 97.8512 497.348 98.3777 497.636C98.9043 497.924 99.3171 498.312 99.6164 498.801C99.9156 499.29 100.065 499.833 100.065 500.432C100.065 500.86 99.9876 501.278 99.8323 501.688C99.6808 502.093 99.4156 502.545 99.0368 503.045C98.6618 503.542 98.141 504.148 97.4743 504.864L94.8607 507.659V507.75H100.27V509H92.9289ZM106.412 509.159C105.556 509.159 104.827 508.926 104.224 508.46C103.622 507.991 103.162 507.311 102.844 506.42C102.525 505.527 102.366 504.447 102.366 503.182C102.366 501.924 102.525 500.85 102.844 499.96C103.166 499.066 103.628 498.384 104.23 497.915C104.836 497.441 105.563 497.205 106.412 497.205C107.26 497.205 107.986 497.441 108.588 497.915C109.194 498.384 109.656 499.066 109.974 499.96C110.296 500.85 110.457 501.924 110.457 503.182C110.457 504.447 110.298 505.527 109.98 506.42C109.662 507.311 109.202 507.991 108.599 508.46C107.997 508.926 107.268 509.159 106.412 509.159ZM106.412 507.909C107.26 507.909 107.919 507.5 108.389 506.682C108.859 505.864 109.094 504.697 109.094 503.182C109.094 502.174 108.986 501.316 108.77 500.608C108.558 499.9 108.251 499.36 107.849 498.989C107.452 498.617 106.972 498.432 106.412 498.432C105.571 498.432 104.914 498.847 104.44 499.676C103.967 500.502 103.73 501.67 103.73 503.182C103.73 504.189 103.836 505.045 104.048 505.75C104.26 506.455 104.565 506.991 104.963 507.358C105.364 507.725 105.847 507.909 106.412 507.909ZM116.707 497.364V509H115.298V498.841H115.23L112.389 500.727V499.295L115.298 497.364H116.707ZM120.418 509L125.622 498.705V498.614H119.622V497.364H127.077V498.682L121.895 509H120.418Z" fill="black" fill-opacity="0.9"/>
<path d="M250.284 509V507.977L254.125 503.773C254.575 503.28 254.947 502.852 255.238 502.489C255.53 502.121 255.746 501.777 255.886 501.455C256.03 501.129 256.102 500.788 256.102 500.432C256.102 500.023 256.003 499.669 255.807 499.369C255.613 499.07 255.348 498.839 255.011 498.676C254.674 498.513 254.295 498.432 253.875 498.432C253.428 498.432 253.038 498.525 252.704 498.71C252.375 498.892 252.119 499.148 251.937 499.477C251.759 499.807 251.67 500.193 251.67 500.636H250.329C250.329 499.955 250.486 499.356 250.801 498.841C251.115 498.326 251.543 497.924 252.085 497.636C252.63 497.348 253.242 497.205 253.92 497.205C254.602 497.205 255.206 497.348 255.733 497.636C256.259 497.924 256.672 498.312 256.971 498.801C257.271 499.29 257.42 499.833 257.42 500.432C257.42 500.86 257.343 501.278 257.187 501.688C257.036 502.093 256.771 502.545 256.392 503.045C256.017 503.542 255.496 504.148 254.829 504.864L252.216 507.659V507.75H257.625V509H250.284ZM263.767 509.159C262.911 509.159 262.182 508.926 261.579 508.46C260.977 507.991 260.517 507.311 260.199 506.42C259.88 505.527 259.721 504.447 259.721 503.182C259.721 501.924 259.88 500.85 260.199 499.96C260.521 499.066 260.983 498.384 261.585 497.915C262.191 497.441 262.918 497.205 263.767 497.205C264.615 497.205 265.341 497.441 265.943 497.915C266.549 498.384 267.011 499.066 267.329 499.96C267.651 500.85 267.812 501.924 267.812 503.182C267.812 504.447 267.653 505.527 267.335 506.42C267.017 507.311 266.557 507.991 265.954 508.46C265.352 508.926 264.623 509.159 263.767 509.159ZM263.767 507.909C264.615 507.909 265.274 507.5 265.744 506.682C266.214 505.864 266.449 504.697 266.449 503.182C266.449 502.174 266.341 501.316 266.125 500.608C265.913 499.9 265.606 499.36 265.204 498.989C264.807 498.617 264.327 498.432 263.767 498.432C262.926 498.432 262.269 498.847 261.795 499.676C261.322 500.502 261.085 501.67 261.085 503.182C261.085 504.189 261.191 505.045 261.403 505.75C261.615 506.455 261.92 506.991 262.318 507.358C262.719 507.725 263.202 507.909 263.767 507.909ZM274.062 497.364V509H272.653V498.841H272.585L269.744 500.727V499.295L272.653 497.364H274.062ZM281.136 509.159C280.356 509.159 279.666 509.021 279.068 508.744C278.473 508.464 278.009 508.08 277.676 507.591C277.343 507.098 277.178 506.538 277.182 505.909C277.178 505.417 277.274 504.962 277.471 504.545C277.668 504.125 277.937 503.775 278.278 503.494C278.623 503.21 279.007 503.03 279.432 502.955V502.886C278.875 502.742 278.432 502.43 278.102 501.949C277.772 501.464 277.61 500.913 277.613 500.295C277.61 499.705 277.759 499.176 278.062 498.71C278.365 498.244 278.782 497.877 279.312 497.608C279.846 497.339 280.454 497.205 281.136 497.205C281.81 497.205 282.413 497.339 282.943 497.608C283.473 497.877 283.89 498.244 284.193 498.71C284.5 499.176 284.655 499.705 284.659 500.295C284.655 500.913 284.486 501.464 284.153 501.949C283.824 502.43 283.386 502.742 282.841 502.886V502.955C283.261 503.03 283.64 503.21 283.977 503.494C284.314 503.775 284.583 504.125 284.784 504.545C284.985 504.962 285.087 505.417 285.091 505.909C285.087 506.538 284.916 507.098 284.579 507.591C284.246 508.08 283.782 508.464 283.187 508.744C282.596 509.021 281.913 509.159 281.136 509.159ZM281.136 507.909C281.663 507.909 282.117 507.824 282.5 507.653C282.882 507.483 283.178 507.242 283.386 506.932C283.594 506.621 283.7 506.258 283.704 505.841C283.7 505.402 283.587 505.013 283.363 504.676C283.14 504.339 282.835 504.074 282.449 503.881C282.066 503.687 281.628 503.591 281.136 503.591C280.64 503.591 280.197 503.687 279.807 503.881C279.42 504.074 279.115 504.339 278.892 504.676C278.672 505.013 278.564 505.402 278.568 505.841C278.564 506.258 278.664 506.621 278.869 506.932C279.077 507.242 279.375 507.483 279.761 507.653C280.147 507.824 280.606 507.909 281.136 507.909ZM281.136 502.386C281.553 502.386 281.922 502.303 282.244 502.136C282.57 501.97 282.825 501.737 283.011 501.438C283.197 501.138 283.291 500.788 283.295 500.386C283.291 499.992 283.199 499.65 283.017 499.358C282.835 499.062 282.583 498.835 282.261 498.676C281.939 498.513 281.564 498.432 281.136 498.432C280.7 498.432 280.32 498.513 279.994 498.676C279.668 498.835 279.416 499.062 279.238 499.358C279.06 499.65 278.973 499.992 278.977 500.386C278.973 500.788 279.062 501.138 279.244 501.438C279.43 501.737 279.685 501.97 280.011 502.136C280.337 502.303 280.712 502.386 281.136 502.386Z" fill="black" fill-opacity="0.9"/>
<path d="M407.936 509V507.977L411.776 503.773C412.227 503.28 412.598 502.852 412.89 502.489C413.182 502.121 413.398 501.777 413.538 501.455C413.682 501.129 413.754 500.788 413.754 500.432C413.754 500.023 413.655 499.669 413.458 499.369C413.265 499.07 413 498.839 412.663 498.676C412.326 498.513 411.947 498.432 411.526 498.432C411.079 498.432 410.689 498.525 410.356 498.71C410.026 498.892 409.771 499.148 409.589 499.477C409.411 499.807 409.322 500.193 409.322 500.636H407.981C407.981 499.955 408.138 499.356 408.453 498.841C408.767 498.326 409.195 497.924 409.737 497.636C410.282 497.348 410.894 497.205 411.572 497.205C412.254 497.205 412.858 497.348 413.384 497.636C413.911 497.924 414.324 498.312 414.623 498.801C414.922 499.29 415.072 499.833 415.072 500.432C415.072 500.86 414.994 501.278 414.839 501.688C414.687 502.093 414.422 502.545 414.044 503.045C413.669 503.542 413.148 504.148 412.481 504.864L409.867 507.659V507.75H415.276V509H407.936ZM421.419 509.159C420.562 509.159 419.833 508.926 419.231 508.46C418.629 507.991 418.169 507.311 417.85 506.42C417.532 505.527 417.373 504.447 417.373 503.182C417.373 501.924 417.532 500.85 417.85 499.96C418.172 499.066 418.634 498.384 419.237 497.915C419.843 497.441 420.57 497.205 421.419 497.205C422.267 497.205 422.992 497.441 423.595 497.915C424.201 498.384 424.663 499.066 424.981 499.96C425.303 500.85 425.464 501.924 425.464 503.182C425.464 504.447 425.305 505.527 424.987 506.42C424.669 507.311 424.208 507.991 423.606 508.46C423.004 508.926 422.275 509.159 421.419 509.159ZM421.419 507.909C422.267 507.909 422.926 507.5 423.396 506.682C423.865 505.864 424.1 504.697 424.1 503.182C424.1 502.174 423.992 501.316 423.776 500.608C423.564 499.9 423.258 499.36 422.856 498.989C422.458 498.617 421.979 498.432 421.419 498.432C420.578 498.432 419.92 498.847 419.447 499.676C418.973 500.502 418.737 501.67 418.737 503.182C418.737 504.189 418.843 505.045 419.055 505.75C419.267 506.455 419.572 506.991 419.97 507.358C420.371 507.725 420.854 507.909 421.419 507.909ZM431.714 497.364V509H430.305V498.841H430.237L427.396 500.727V499.295L430.305 497.364H431.714ZM438.765 497.205C439.242 497.208 439.72 497.299 440.197 497.477C440.674 497.655 441.11 497.951 441.504 498.364C441.898 498.773 442.214 499.331 442.453 500.04C442.691 500.748 442.811 501.636 442.811 502.705C442.811 503.739 442.712 504.657 442.515 505.46C442.322 506.259 442.042 506.934 441.674 507.483C441.311 508.032 440.867 508.449 440.345 508.733C439.826 509.017 439.239 509.159 438.583 509.159C437.932 509.159 437.35 509.03 436.839 508.773C436.331 508.511 435.915 508.15 435.589 507.688C435.267 507.222 435.061 506.682 434.97 506.068H436.356C436.481 506.602 436.729 507.044 437.1 507.392C437.475 507.737 437.97 507.909 438.583 507.909C439.481 507.909 440.189 507.517 440.708 506.733C441.231 505.949 441.492 504.841 441.492 503.409H441.401C441.189 503.727 440.937 504.002 440.646 504.233C440.354 504.464 440.03 504.642 439.674 504.767C439.318 504.892 438.939 504.955 438.538 504.955C437.871 504.955 437.259 504.79 436.703 504.46C436.15 504.127 435.706 503.67 435.373 503.091C435.044 502.508 434.879 501.841 434.879 501.091C434.879 500.379 435.038 499.727 435.356 499.136C435.678 498.542 436.129 498.068 436.708 497.716C437.292 497.364 437.977 497.193 438.765 497.205ZM438.765 498.455C438.288 498.455 437.858 498.574 437.475 498.812C437.097 499.047 436.795 499.366 436.572 499.767C436.352 500.165 436.242 500.606 436.242 501.091C436.242 501.576 436.348 502.017 436.561 502.415C436.776 502.809 437.07 503.123 437.441 503.358C437.816 503.589 438.242 503.705 438.72 503.705C439.079 503.705 439.415 503.634 439.725 503.494C440.036 503.35 440.307 503.155 440.538 502.909C440.773 502.659 440.956 502.377 441.089 502.062C441.222 501.744 441.288 501.413 441.288 501.068C441.288 500.614 441.178 500.187 440.958 499.79C440.742 499.392 440.443 499.07 440.061 498.824C439.682 498.578 439.25 498.455 438.765 498.455Z" fill="black" fill-opacity="0.9"/>
<path d="M564.517 509V507.977L568.358 503.773C568.809 503.28 569.18 502.852 569.472 502.489C569.763 502.121 569.979 501.777 570.119 501.455C570.263 501.129 570.335 500.788 570.335 500.432C570.335 500.023 570.237 499.669 570.04 499.369C569.847 499.07 569.581 498.839 569.244 498.676C568.907 498.513 568.528 498.432 568.108 498.432C567.661 498.432 567.271 498.525 566.937 498.71C566.608 498.892 566.352 499.148 566.17 499.477C565.992 499.807 565.903 500.193 565.903 500.636H564.562C564.562 499.955 564.72 499.356 565.034 498.841C565.348 498.326 565.776 497.924 566.318 497.636C566.864 497.348 567.475 497.205 568.153 497.205C568.835 497.205 569.439 497.348 569.966 497.636C570.492 497.924 570.905 498.312 571.205 498.801C571.504 499.29 571.653 499.833 571.653 500.432C571.653 500.86 571.576 501.278 571.42 501.688C571.269 502.093 571.004 502.545 570.625 503.045C570.25 503.542 569.729 504.148 569.062 504.864L566.449 507.659V507.75H571.858V509H564.517ZM578 509.159C577.144 509.159 576.415 508.926 575.812 508.46C575.21 507.991 574.75 507.311 574.432 506.42C574.114 505.527 573.955 504.447 573.955 503.182C573.955 501.924 574.114 500.85 574.432 499.96C574.754 499.066 575.216 498.384 575.818 497.915C576.424 497.441 577.151 497.205 578 497.205C578.848 497.205 579.574 497.441 580.176 497.915C580.782 498.384 581.244 499.066 581.562 499.96C581.884 500.85 582.045 501.924 582.045 503.182C582.045 504.447 581.886 505.527 581.568 506.42C581.25 507.311 580.79 507.991 580.187 508.46C579.585 508.926 578.856 509.159 578 509.159ZM578 507.909C578.848 507.909 579.508 507.5 579.977 506.682C580.447 505.864 580.682 504.697 580.682 503.182C580.682 502.174 580.574 501.316 580.358 500.608C580.146 499.9 579.839 499.36 579.437 498.989C579.04 498.617 578.561 498.432 578 498.432C577.159 498.432 576.502 498.847 576.028 499.676C575.555 500.502 575.318 501.67 575.318 503.182C575.318 504.189 575.424 505.045 575.636 505.75C575.848 506.455 576.153 506.991 576.551 507.358C576.953 507.725 577.436 507.909 578 507.909ZM584.205 509V507.977L588.045 503.773C588.496 503.28 588.867 502.852 589.159 502.489C589.451 502.121 589.667 501.777 589.807 501.455C589.951 501.129 590.023 500.788 590.023 500.432C590.023 500.023 589.924 499.669 589.727 499.369C589.534 499.07 589.269 498.839 588.932 498.676C588.595 498.513 588.216 498.432 587.795 498.432C587.348 498.432 586.958 498.525 586.625 498.71C586.295 498.892 586.04 499.148 585.858 499.477C585.68 499.807 585.591 500.193 585.591 500.636H584.25C584.25 499.955 584.407 499.356 584.722 498.841C585.036 498.326 585.464 497.924 586.006 497.636C586.551 497.348 587.163 497.205 587.841 497.205C588.523 497.205 589.127 497.348 589.653 497.636C590.18 497.924 590.593 498.312 590.892 498.801C591.191 499.29 591.341 499.833 591.341 500.432C591.341 500.86 591.263 501.278 591.108 501.688C590.956 502.093 590.691 502.545 590.312 503.045C589.937 503.542 589.417 504.148 588.75 504.864L586.136 507.659V507.75H591.545V509H584.205ZM597.687 509.159C596.831 509.159 596.102 508.926 595.5 508.46C594.898 507.991 594.437 507.311 594.119 506.42C593.801 505.527 593.642 504.447 593.642 503.182C593.642 501.924 593.801 500.85 594.119 499.96C594.441 499.066 594.903 498.384 595.506 497.915C596.112 497.441 596.839 497.205 597.687 497.205C598.536 497.205 599.261 497.441 599.864 497.915C600.47 498.384 600.932 499.066 601.25 499.96C601.572 500.85 601.733 501.924 601.733 503.182C601.733 504.447 601.574 505.527 601.256 506.42C600.937 507.311 600.477 507.991 599.875 508.46C599.273 508.926 598.544 509.159 597.687 509.159ZM597.687 507.909C598.536 507.909 599.195 507.5 599.665 506.682C600.134 505.864 600.369 504.697 600.369 503.182C600.369 502.174 600.261 501.316 600.045 500.608C599.833 499.9 599.526 499.36 599.125 498.989C598.727 498.617 598.248 498.432 597.687 498.432C596.847 498.432 596.189 498.847 595.716 499.676C595.242 500.502 595.006 501.67 595.006 503.182C595.006 504.189 595.112 505.045 595.324 505.75C595.536 506.455 595.841 506.991 596.239 507.358C596.64 507.725 597.123 507.909 597.687 507.909Z" fill="black" fill-opacity="0.9"/>
<path d="M723.513 509V507.977L727.353 503.773C727.804 503.28 728.175 502.852 728.467 502.489C728.759 502.121 728.975 501.777 729.115 501.455C729.259 501.129 729.331 500.788 729.331 500.432C729.331 500.023 729.232 499.669 729.035 499.369C728.842 499.07 728.577 498.839 728.24 498.676C727.903 498.513 727.524 498.432 727.103 498.432C726.656 498.432 726.266 498.525 725.933 498.71C725.603 498.892 725.348 499.148 725.166 499.477C724.988 499.807 724.899 500.193 724.899 500.636H723.558C723.558 499.955 723.715 499.356 724.03 498.841C724.344 498.326 724.772 497.924 725.314 497.636C725.859 497.348 726.471 497.205 727.149 497.205C727.831 497.205 728.435 497.348 728.961 497.636C729.488 497.924 729.901 498.312 730.2 498.801C730.499 499.29 730.649 499.833 730.649 500.432C730.649 500.86 730.571 501.278 730.416 501.688C730.264 502.093 729.999 502.545 729.621 503.045C729.246 503.542 728.725 504.148 728.058 504.864L725.444 507.659V507.75H730.853V509H723.513ZM736.996 509.159C736.139 509.159 735.41 508.926 734.808 508.46C734.206 507.991 733.746 507.311 733.427 506.42C733.109 505.527 732.95 504.447 732.95 503.182C732.95 501.924 733.109 500.85 733.427 499.96C733.749 499.066 734.211 498.384 734.814 497.915C735.42 497.441 736.147 497.205 736.996 497.205C737.844 497.205 738.569 497.441 739.172 497.915C739.778 498.384 740.24 499.066 740.558 499.96C740.88 500.85 741.041 501.924 741.041 503.182C741.041 504.447 740.882 505.527 740.564 506.42C740.246 507.311 739.785 507.991 739.183 508.46C738.581 508.926 737.852 509.159 736.996 509.159ZM736.996 507.909C737.844 507.909 738.503 507.5 738.973 506.682C739.442 505.864 739.677 504.697 739.677 503.182C739.677 502.174 739.569 501.316 739.353 500.608C739.141 499.9 738.835 499.36 738.433 498.989C738.035 498.617 737.556 498.432 736.996 498.432C736.155 498.432 735.497 498.847 735.024 499.676C734.55 500.502 734.314 501.67 734.314 503.182C734.314 504.189 734.42 505.045 734.632 505.75C734.844 506.455 735.149 506.991 735.547 507.358C735.948 507.725 736.431 507.909 736.996 507.909ZM743.2 509V507.977L747.041 503.773C747.492 503.28 747.863 502.852 748.155 502.489C748.446 502.121 748.662 501.777 748.802 501.455C748.946 501.129 749.018 500.788 749.018 500.432C749.018 500.023 748.92 499.669 748.723 499.369C748.53 499.07 748.264 498.839 747.927 498.676C747.59 498.513 747.211 498.432 746.791 498.432C746.344 498.432 745.954 498.525 745.621 498.71C745.291 498.892 745.035 499.148 744.853 499.477C744.675 499.807 744.586 500.193 744.586 500.636H743.246C743.246 499.955 743.403 499.356 743.717 498.841C744.031 498.326 744.46 497.924 745.001 497.636C745.547 497.348 746.158 497.205 746.836 497.205C747.518 497.205 748.122 497.348 748.649 497.636C749.175 497.924 749.588 498.312 749.888 498.801C750.187 499.29 750.336 499.833 750.336 500.432C750.336 500.86 750.259 501.278 750.103 501.688C749.952 502.093 749.687 502.545 749.308 503.045C748.933 503.542 748.412 504.148 747.746 504.864L745.132 507.659V507.75H750.541V509H743.2ZM756.978 497.364V509H755.569V498.841H755.501L752.66 500.727V499.295L755.569 497.364H756.978Z" fill="black" fill-opacity="0.9"/>
<path d="M880.102 509V507.977L883.943 503.773C884.394 503.28 884.765 502.852 885.056 502.489C885.348 502.121 885.564 501.777 885.704 501.455C885.848 501.129 885.92 500.788 885.92 500.432C885.92 500.023 885.822 499.669 885.625 499.369C885.431 499.07 885.166 498.839 884.829 498.676C884.492 498.513 884.113 498.432 883.693 498.432C883.246 498.432 882.856 498.525 882.522 498.71C882.193 498.892 881.937 499.148 881.755 499.477C881.577 499.807 881.488 500.193 881.488 500.636H880.147C880.147 499.955 880.304 499.356 880.619 498.841C880.933 498.326 881.361 497.924 881.903 497.636C882.448 497.348 883.06 497.205 883.738 497.205C884.42 497.205 885.024 497.348 885.551 497.636C886.077 497.924 886.49 498.312 886.789 498.801C887.089 499.29 887.238 499.833 887.238 500.432C887.238 500.86 887.161 501.278 887.005 501.688C886.854 502.093 886.589 502.545 886.21 503.045C885.835 503.542 885.314 504.148 884.647 504.864L882.034 507.659V507.75H887.443V509H880.102ZM893.585 509.159C892.729 509.159 892 508.926 891.397 508.46C890.795 507.991 890.335 507.311 890.017 506.42C889.698 505.527 889.539 504.447 889.539 503.182C889.539 501.924 889.698 500.85 890.017 499.96C890.339 499.066 890.801 498.384 891.403 497.915C892.009 497.441 892.736 497.205 893.585 497.205C894.433 497.205 895.159 497.441 895.761 497.915C896.367 498.384 896.829 499.066 897.147 499.96C897.469 500.85 897.63 501.924 897.63 503.182C897.63 504.447 897.471 505.527 897.153 506.42C896.835 507.311 896.375 507.991 895.772 508.46C895.17 508.926 894.441 509.159 893.585 509.159ZM893.585 507.909C894.433 507.909 895.092 507.5 895.562 506.682C896.032 505.864 896.267 504.697 896.267 503.182C896.267 502.174 896.159 501.316 895.943 500.608C895.731 499.9 895.424 499.36 895.022 498.989C894.625 498.617 894.145 498.432 893.585 498.432C892.744 498.432 892.087 498.847 891.613 499.676C891.14 500.502 890.903 501.67 890.903 503.182C890.903 504.189 891.009 505.045 891.221 505.75C891.433 506.455 891.738 506.991 892.136 507.358C892.537 507.725 893.02 507.909 893.585 507.909ZM899.789 509V507.977L903.63 503.773C904.081 503.28 904.452 502.852 904.744 502.489C905.036 502.121 905.251 501.777 905.392 501.455C905.536 501.129 905.608 500.788 905.608 500.432C905.608 500.023 905.509 499.669 905.312 499.369C905.119 499.07 904.854 498.839 904.517 498.676C904.179 498.513 903.801 498.432 903.38 498.432C902.933 498.432 902.543 498.525 902.21 498.71C901.88 498.892 901.625 499.148 901.443 499.477C901.265 499.807 901.176 500.193 901.176 500.636H899.835C899.835 499.955 899.992 499.356 900.306 498.841C900.621 498.326 901.049 497.924 901.59 497.636C902.136 497.348 902.748 497.205 903.426 497.205C904.108 497.205 904.712 497.348 905.238 497.636C905.765 497.924 906.178 498.312 906.477 498.801C906.776 499.29 906.926 499.833 906.926 500.432C906.926 500.86 906.848 501.278 906.693 501.688C906.541 502.093 906.276 502.545 905.897 503.045C905.522 503.542 905.001 504.148 904.335 504.864L901.721 507.659V507.75H907.13V509H899.789ZM909.477 509V507.977L913.318 503.773C913.769 503.28 914.14 502.852 914.431 502.489C914.723 502.121 914.939 501.777 915.079 501.455C915.223 501.129 915.295 500.788 915.295 500.432C915.295 500.023 915.197 499.669 915 499.369C914.806 499.07 914.541 498.839 914.204 498.676C913.867 498.513 913.488 498.432 913.068 498.432C912.621 498.432 912.231 498.525 911.897 498.71C911.568 498.892 911.312 499.148 911.13 499.477C910.952 499.807 910.863 500.193 910.863 500.636H909.522C909.522 499.955 909.679 499.356 909.994 498.841C910.308 498.326 910.736 497.924 911.278 497.636C911.823 497.348 912.435 497.205 913.113 497.205C913.795 497.205 914.399 497.348 914.926 497.636C915.452 497.924 915.865 498.312 916.164 498.801C916.464 499.29 916.613 499.833 916.613 500.432C916.613 500.86 916.536 501.278 916.38 501.688C916.229 502.093 915.964 502.545 915.585 503.045C915.21 503.542 914.689 504.148 914.022 504.864L911.409 507.659V507.75H916.818V509H909.477Z" fill="black" fill-opacity="0.9"/>
<path d="M1037.57 509V507.977L1041.41 503.773C1041.86 503.28 1042.23 502.852 1042.52 502.489C1042.81 502.121 1043.03 501.777 1043.17 501.455C1043.31 501.129 1043.38 500.788 1043.38 500.432C1043.38 500.023 1043.29 499.669 1043.09 499.369C1042.9 499.07 1042.63 498.839 1042.29 498.676C1041.96 498.513 1041.58 498.432 1041.16 498.432C1040.71 498.432 1040.32 498.525 1039.99 498.71C1039.66 498.892 1039.4 499.148 1039.22 499.477C1039.04 499.807 1038.95 500.193 1038.95 500.636H1037.61C1037.61 499.955 1037.77 499.356 1038.08 498.841C1038.4 498.326 1038.83 497.924 1039.37 497.636C1039.91 497.348 1040.52 497.205 1041.2 497.205C1041.88 497.205 1042.49 497.348 1043.01 497.636C1043.54 497.924 1043.95 498.312 1044.25 498.801C1044.55 499.29 1044.7 499.833 1044.7 500.432C1044.7 500.86 1044.62 501.278 1044.47 501.688C1044.32 502.093 1044.05 502.545 1043.67 503.045C1043.3 503.542 1042.78 504.148 1042.11 504.864L1039.5 507.659V507.75H1044.91V509H1037.57ZM1051.05 509.159C1050.19 509.159 1049.46 508.926 1048.86 508.46C1048.26 507.991 1047.8 507.311 1047.48 506.42C1047.16 505.527 1047 504.447 1047 503.182C1047 501.924 1047.16 500.85 1047.48 499.96C1047.8 499.066 1048.26 498.384 1048.87 497.915C1049.47 497.441 1050.2 497.205 1051.05 497.205C1051.9 497.205 1052.62 497.441 1053.23 497.915C1053.83 498.384 1054.29 499.066 1054.61 499.96C1054.93 500.85 1055.09 501.924 1055.09 503.182C1055.09 504.447 1054.94 505.527 1054.62 506.42C1054.3 507.311 1053.84 507.991 1053.24 508.46C1052.63 508.926 1051.91 509.159 1051.05 509.159ZM1051.05 507.909C1051.9 507.909 1052.56 507.5 1053.03 506.682C1053.5 505.864 1053.73 504.697 1053.73 503.182C1053.73 502.174 1053.62 501.316 1053.41 500.608C1053.19 499.9 1052.89 499.36 1052.49 498.989C1052.09 498.617 1051.61 498.432 1051.05 498.432C1050.21 498.432 1049.55 498.847 1049.08 499.676C1048.6 500.502 1048.37 501.67 1048.37 503.182C1048.37 504.189 1048.47 505.045 1048.69 505.75C1048.9 506.455 1049.2 506.991 1049.6 507.358C1050 507.725 1050.48 507.909 1051.05 507.909ZM1057.25 509V507.977L1061.09 503.773C1061.55 503.28 1061.92 502.852 1062.21 502.489C1062.5 502.121 1062.72 501.777 1062.86 501.455C1063 501.129 1063.07 500.788 1063.07 500.432C1063.07 500.023 1062.97 499.669 1062.78 499.369C1062.58 499.07 1062.32 498.839 1061.98 498.676C1061.64 498.513 1061.26 498.432 1060.84 498.432C1060.4 498.432 1060.01 498.525 1059.67 498.71C1059.34 498.892 1059.09 499.148 1058.91 499.477C1058.73 499.807 1058.64 500.193 1058.64 500.636H1057.3C1057.3 499.955 1057.46 499.356 1057.77 498.841C1058.09 498.326 1058.51 497.924 1059.05 497.636C1059.6 497.348 1060.21 497.205 1060.89 497.205C1061.57 497.205 1062.18 497.348 1062.7 497.636C1063.23 497.924 1063.64 498.312 1063.94 498.801C1064.24 499.29 1064.39 499.833 1064.39 500.432C1064.39 500.86 1064.31 501.278 1064.16 501.688C1064.01 502.093 1063.74 502.545 1063.36 503.045C1062.99 503.542 1062.47 504.148 1061.8 504.864L1059.19 507.659V507.75H1064.59V509H1057.25ZM1070.87 509.159C1070.12 509.159 1069.45 509.03 1068.87 508.773C1068.28 508.515 1067.82 508.157 1067.48 507.699C1067.13 507.237 1066.95 506.701 1066.92 506.091H1068.35C1068.38 506.466 1068.51 506.79 1068.74 507.062C1068.96 507.331 1069.26 507.54 1069.63 507.688C1070 507.835 1070.4 507.909 1070.85 507.909C1071.35 507.909 1071.79 507.822 1072.18 507.648C1072.57 507.473 1072.87 507.231 1073.09 506.92C1073.31 506.61 1073.42 506.25 1073.42 505.841C1073.42 505.413 1073.31 505.036 1073.1 504.71C1072.89 504.381 1072.58 504.123 1072.17 503.938C1071.76 503.752 1071.26 503.659 1070.67 503.659H1069.74V502.409H1070.67C1071.13 502.409 1071.54 502.326 1071.88 502.159C1072.24 501.992 1072.51 501.758 1072.71 501.455C1072.91 501.152 1073.01 500.795 1073.01 500.386C1073.01 499.992 1072.92 499.65 1072.75 499.358C1072.57 499.066 1072.33 498.839 1072.01 498.676C1071.69 498.513 1071.32 498.432 1070.9 498.432C1070.49 498.432 1070.12 498.506 1069.76 498.653C1069.41 498.797 1069.12 499.008 1068.9 499.284C1068.67 499.557 1068.55 499.886 1068.53 500.273H1067.17C1067.19 499.663 1067.37 499.129 1067.72 498.67C1068.06 498.208 1068.51 497.848 1069.07 497.591C1069.63 497.333 1070.25 497.205 1070.92 497.205C1071.64 497.205 1072.26 497.35 1072.77 497.642C1073.29 497.93 1073.68 498.311 1073.96 498.784C1074.23 499.258 1074.37 499.769 1074.37 500.318C1074.37 500.973 1074.2 501.532 1073.86 501.994C1073.51 502.456 1073.05 502.777 1072.46 502.955V503.045C1073.2 503.167 1073.77 503.479 1074.19 503.983C1074.6 504.483 1074.8 505.102 1074.8 505.841C1074.8 506.473 1074.63 507.042 1074.29 507.545C1073.95 508.045 1073.48 508.439 1072.89 508.727C1072.3 509.015 1071.63 509.159 1070.87 509.159Z" fill="black" fill-opacity="0.9"/>
</svg>
